<?xml version="1.0" encoding="UTF-8" standalone="no"?>
<!DOCTYPE svg PUBLIC "-//W3C//DTD SVG 1.1//EN" "http://www.w3.org/Graphics/SVG/1.1/DTD/svg11.dtd">
<svg width="100%" height="100%" viewBox="0 0 573 573" version="1.1" xmlns="http://www.w3.org/2000/svg" xmlns:xlink="http://www.w3.org/1999/xlink" xml:space="preserve" xmlns:serif="http://www.serif.com/" style="fill-rule:evenodd;clip-rule:evenodd;stroke-linejoin:round;stroke-miterlimit:2;">
    <g transform="matrix(4.16667,0,0,4.16667,-28038.3,-18277.3)">
        <path d="M6866.53,4455.2L6864.53,4455.2C6864.53,4473.62 6857.07,4490.28 6845,4502.34C6832.93,4514.41 6816.27,4521.87 6797.86,4521.87C6779.45,4521.87 6762.79,4514.41 6750.72,4502.34C6738.66,4490.28 6731.2,4473.62 6731.2,4455.2C6731.2,4436.79 6738.66,4420.13 6750.72,4408.07C6762.79,4396 6779.45,4388.54 6797.86,4388.54C6816.27,4388.54 6832.93,4396 6845,4408.07C6857.07,4420.13 6864.53,4436.79 6864.53,4455.2L6866.53,4455.2C6866.53,4417.28 6835.79,4386.54 6797.86,4386.54C6759.94,4386.54 6729.2,4417.28 6729.2,4455.2C6729.2,4493.13 6759.94,4523.87 6797.86,4523.87C6835.79,4523.87 6866.53,4493.13 6866.53,4455.2Z" style="fill:rgb(128,197,192);fill-rule:nonzero;"/>
    </g>
    <g transform="matrix(4.16667,0,0,4.16667,-28038.3,-18277.3)">
        <path d="M6819.73,4431.17C6815.2,4426.98 6808.45,4424.15 6801.32,4424.01L6801.15,4450.32L6819.73,4431.17Z" style="fill:rgb(128,197,192);fill-rule:nonzero;"/>
    </g>
    <g transform="matrix(4.16667,0,0,4.16667,-28038.3,-18277.3)">
        <path d="M6796.37,4423.83C6777.74,4423.83 6763.98,4438.93 6763.98,4457.56C6763.98,4476.18 6779.08,4491.28 6797.71,4491.28C6810.77,4491.28 6822.92,4483.57 6827.39,4473.62L6797.05,4457.56L6797.05,4423.85C6796.82,4423.84 6796.6,4423.83 6796.37,4423.83Z" style="fill:rgb(128,197,192);fill-rule:nonzero;"/>
    </g>
    <g transform="matrix(4.16667,0,0,4.16667,-28038.3,-18277.3)">
        <path d="M6813.76,4443.26L6808.87,4458.82L6811.69,4460.33L6818.61,4438.26L6813.76,4443.26Z" style="fill:rgb(128,197,192);fill-rule:nonzero;"/>
    </g>
    <g transform="matrix(4.16667,0,0,4.16667,-28038.3,-18277.3)">
        <path d="M6807.46,4449.73L6805.22,4456.86L6808.04,4458.37L6812.32,4444.73L6807.46,4449.73Z" style="fill:rgb(128,197,192);fill-rule:nonzero;"/>
    </g>
    <g transform="matrix(4.16667,0,0,4.16667,-28038.3,-18277.3)">
        <path d="M6827.46,4440.36L6819.83,4464.69L6822.65,4466.2L6829.48,4444.43C6828.9,4443.02 6828.23,4441.66 6827.46,4440.36Z" style="fill:rgb(128,197,192);fill-rule:nonzero;"/>
    </g>
    <g transform="matrix(4.16667,0,0,4.16667,-28038.3,-18277.3)">
        <path d="M6830.01,4445.83L6823.48,4466.64L6826.3,4468.15L6831.46,4451.72C6831.17,4449.7 6830.69,4447.73 6830.01,4445.83Z" style="fill:rgb(128,197,192);fill-rule:nonzero;"/>
    </g>
    <g transform="matrix(4.16667,0,0,4.16667,-28038.3,-18277.3)">
        <path d="M6831.74,4455.64C6831.74,4455.11 6831.73,4454.59 6831.7,4454.06L6827.13,4468.6L6828.79,4469.48C6830.9,4465.39 6831.74,4460.57 6831.74,4455.64Z" style="fill:rgb(128,197,192);fill-rule:nonzero;"/>
    </g>
    <g transform="matrix(4.16667,0,0,4.16667,-28038.3,-18277.3)">
        <path d="M6822.67,4434.1L6820.05,4436.79L6812.52,4460.77L6815.34,4462.28L6823.81,4435.32C6823.43,4434.9 6823.06,4434.49 6822.67,4434.1Z" style="fill:rgb(128,197,192);fill-rule:nonzero;"/>
    </g>
    <g transform="matrix(4.16667,0,0,4.16667,-28038.3,-18277.3)">
        <path d="M6802.13,4455.2L6804.39,4456.41L6806.02,4451.21L6802.13,4455.2Z" style="fill:rgb(128,197,192);fill-rule:nonzero;"/>
    </g>
    <g transform="matrix(4.16667,0,0,4.16667,-28038.3,-18277.3)">
        <path d="M6824.52,4436.14L6816.18,4462.73L6818.99,4464.24L6826.82,4439.3C6826.11,4438.2 6825.35,4437.14 6824.52,4436.14Z" style="fill:rgb(128,197,192);fill-rule:nonzero;"/>
    </g>
</svg>
