<?xml version="1.0" encoding="UTF-8" standalone="no"?>
<!DOCTYPE svg PUBLIC "-//W3C//DTD SVG 1.1//EN" "http://www.w3.org/Graphics/SVG/1.1/DTD/svg11.dtd">
<svg width="100%" height="100%" viewBox="0 0 573 573" version="1.1" xmlns="http://www.w3.org/2000/svg" xmlns:xlink="http://www.w3.org/1999/xlink" xml:space="preserve" xmlns:serif="http://www.serif.com/" style="fill-rule:evenodd;clip-rule:evenodd;stroke-linejoin:round;stroke-miterlimit:2;">
    <g transform="matrix(4.16667,0,0,4.16667,-29872.2,-16777.6)">
        <path d="M7306.66,4095.28L7304.66,4095.28C7304.66,4113.69 7297.2,4130.35 7285.14,4142.42C7273.07,4154.48 7256.41,4161.94 7238,4161.94C7219.59,4161.94 7202.93,4154.48 7190.86,4142.42C7178.79,4130.35 7171.33,4113.69 7171.33,4095.28C7171.33,4076.87 7178.79,4060.21 7190.86,4048.14C7202.93,4036.08 7219.59,4028.62 7238,4028.62C7256.41,4028.62 7273.07,4036.08 7285.14,4048.14C7297.2,4060.21 7304.66,4076.87 7304.66,4095.28L7306.66,4095.28C7306.66,4057.36 7275.92,4026.62 7238,4026.62C7200.08,4026.62 7169.33,4057.36 7169.33,4095.28C7169.33,4133.2 7200.08,4163.94 7238,4163.94C7275.92,4163.94 7306.66,4133.2 7306.66,4095.28Z" style="fill:rgb(128,197,192);fill-rule:nonzero;"/>
    </g>
    <g transform="matrix(4.16667,0,0,4.16667,-29872.2,-16777.6)">
        <path d="M7252.61,4097.24L7252.59,4076.89L7268.84,4076.87L7268.87,4097.23L7252.61,4097.24ZM7209.36,4108.71L7209.36,4107.07L7252.92,4107.02L7252.92,4108.66L7209.36,4108.71ZM7209.35,4100.94L7231.13,4100.91L7231.14,4102.56L7209.35,4102.58L7209.35,4100.94ZM7271.51,4069.23L7204.66,4069.01C7201.45,4069 7198.84,4071.6 7198.83,4074.81L7198.69,4115.5C7198.68,4118.71 7201.28,4121.32 7204.49,4121.33L7271.34,4121.55C7274.54,4121.56 7277.16,4118.96 7277.17,4115.76L7277.3,4075.06C7277.31,4071.85 7274.72,4069.24 7271.51,4069.23Z" style="fill:rgb(128,197,192);fill-rule:nonzero;"/>
    </g>
</svg>
