<?xml version="1.0" encoding="UTF-8" standalone="no"?>
<!DOCTYPE svg PUBLIC "-//W3C//DTD SVG 1.1//EN" "http://www.w3.org/Graphics/SVG/1.1/DTD/svg11.dtd">
<svg width="100%" height="100%" viewBox="0 0 104 104" version="1.1" xmlns="http://www.w3.org/2000/svg" xmlns:xlink="http://www.w3.org/1999/xlink" xml:space="preserve" xmlns:serif="http://www.serif.com/" style="fill-rule:evenodd;clip-rule:evenodd;stroke-linejoin:round;stroke-miterlimit:2;">
    <g transform="matrix(4.16667,0,0,4.16667,-31780.6,-24016.8)">
        <path d="M7652.12,5776.41C7652.12,5783.25 7646.58,5788.79 7639.74,5788.79C7632.89,5788.79 7627.35,5783.25 7627.35,5776.41C7627.35,5769.56 7632.89,5764.02 7639.74,5764.02C7646.58,5764.02 7652.12,5769.56 7652.12,5776.41Z" style="fill:white;fill-rule:nonzero;"/>
    </g>
    <g transform="matrix(4.16667,0,0,4.16667,-31780.6,-24016.8)">
        <path d="M7639.74,5776.43L7632.91,5772.05L7646.56,5772.05L7639.74,5776.43Z" style="fill:rgb(128,197,192);fill-rule:nonzero;"/>
    </g>
    <g transform="matrix(4.16667,0,0,4.16667,-31780.6,-24016.8)">
        <path d="M7639.74,5777.59L7646.56,5773.22L7646.56,5780.76L7632.91,5780.76L7632.91,5773.22L7639.74,5777.59Z" style="fill:rgb(128,197,192);fill-rule:nonzero;"/>
    </g>
</svg>
