<?xml version="1.0" encoding="UTF-8" standalone="no"?>
<!DOCTYPE svg PUBLIC "-//W3C//DTD SVG 1.1//EN" "http://www.w3.org/Graphics/SVG/1.1/DTD/svg11.dtd">
<svg width="100%" height="100%" viewBox="0 0 573 573" version="1.1" xmlns="http://www.w3.org/2000/svg" xmlns:xlink="http://www.w3.org/1999/xlink" xml:space="preserve" xmlns:serif="http://www.serif.com/" style="fill-rule:evenodd;clip-rule:evenodd;stroke-linejoin:round;stroke-miterlimit:2;">
    <g transform="matrix(4.16667,0,0,4.16667,-29872.2,-18277.3)">
        <path d="M7306.66,4455.2L7304.66,4455.2C7304.66,4473.62 7297.2,4490.28 7285.14,4502.34C7273.07,4514.41 7256.41,4521.87 7238,4521.87C7219.59,4521.87 7202.93,4514.41 7190.86,4502.34C7178.79,4490.28 7171.33,4473.62 7171.33,4455.2C7171.33,4436.79 7178.79,4420.13 7190.86,4408.07C7202.93,4396 7219.59,4388.54 7238,4388.54C7256.41,4388.54 7273.07,4396 7285.14,4408.07C7297.2,4420.13 7304.66,4436.79 7304.66,4455.2L7306.66,4455.2C7306.66,4417.28 7275.92,4386.54 7238,4386.54C7200.08,4386.54 7169.33,4417.28 7169.33,4455.2C7169.33,4493.13 7200.08,4523.87 7238,4523.87C7275.92,4523.87 7306.66,4493.13 7306.66,4455.2Z" style="fill:rgb(128,197,192);fill-rule:nonzero;"/>
    </g>
    <g transform="matrix(4.16667,0,0,4.16667,-29872.2,-18277.3)">
        <path d="M7252.79,4457.08C7253.5,4465.25 7247.46,4472.45 7239.29,4473.16C7231.12,4473.88 7223.92,4467.83 7223.21,4459.66C7222.49,4451.49 7228.54,4444.29 7236.71,4443.58C7244.88,4442.87 7252.08,4448.91 7252.79,4457.08ZM7216.77,4458.37C7216.77,4470.07 7226.29,4479.6 7238,4479.6C7249.7,4479.6 7259.23,4470.07 7259.23,4458.37C7259.23,4446.66 7249.7,4437.14 7238,4437.14C7226.29,4437.14 7216.77,4446.66 7216.77,4458.37Z" style="fill:rgb(128,197,192);fill-rule:nonzero;"/>
    </g>
    <g transform="matrix(4.16667,0,0,4.16667,-29872.2,-18277.3)">
        <path d="M7238,4482.56C7224.66,4482.56 7213.81,4471.71 7213.81,4458.37C7213.81,4445.03 7224.66,4434.18 7238,4434.18C7251.34,4434.18 7262.19,4445.03 7262.19,4458.37C7262.19,4471.71 7251.34,4482.56 7238,4482.56ZM7267.11,4470.11L7270.62,4469.97C7271.43,4469.94 7272.28,4469.27 7272.49,4468.47L7273.65,4462.92C7273.77,4462.11 7273.26,4461.16 7272.53,4460.8L7269.36,4459.27C7268.63,4458.91 7268.02,4457.95 7268.01,4457.13C7268.01,4457.13 7268,4456.72 7267.92,4455.76L7267.89,4455.43C7267.85,4455.07 7268.37,4454.42 7269.06,4453.98L7272.04,4452.11C7272.73,4451.67 7273.13,4450.66 7272.92,4449.87L7271.16,4444.48C7270.86,4443.72 7269.95,4443.15 7269.13,4443.21L7265.61,4443.46C7264.79,4443.52 7263.83,4443.08 7263.46,4442.47C7263.09,4441.86 7262.33,4439.76 7262.71,4439.03L7264.35,4435.92C7264.73,4435.2 7264.57,4434.13 7263.99,4433.55L7259.77,4429.77C7259.13,4429.26 7258.05,4429.22 7257.37,4429.68L7254.46,4431.66C7253.78,4432.11 7252.72,4432.21 7252.1,4431.87C7251.48,4431.54 7249.76,4430.08 7249.73,4429.26L7249.59,4425.75C7249.56,4424.93 7248.89,4424.09 7248.1,4423.88L7242.55,4422.72C7241.74,4422.6 7240.78,4423.1 7240.43,4423.84L7238.9,4427C7238.54,4427.74 7237.58,4428.35 7236.76,4428.36C7236.76,4428.36 7236.35,4428.37 7235.4,4428.45L7235.06,4428.48C7234.7,4428.53 7234.05,4428 7233.62,4427.3L7231.74,4424.32C7231.3,4423.63 7230.3,4423.24 7229.5,4423.45L7224.11,4425.21C7223.35,4425.51 7222.78,4426.42 7222.84,4427.24L7223.09,4430.76C7223.15,4431.57 7222.71,4432.54 7222.1,4432.91C7221.49,4433.28 7219.39,4434.04 7218.66,4433.66L7215.55,4432.02C7214.83,4431.64 7213.76,4431.8 7213.18,4432.37L7209.4,4436.6C7208.89,4437.25 7208.85,4438.32 7209.31,4439L7211.29,4441.91C7211.75,4442.59 7211.84,4443.65 7211.5,4444.27C7211.16,4444.89 7209.71,4446.6 7208.89,4446.64L7205.38,4446.77C7204.56,4446.81 7203.72,4447.48 7203.5,4448.27L7202.35,4453.82C7202.23,4454.63 7202.74,4455.58 7203.47,4455.94L7206.64,4457.47C7207.37,4457.83 7207.98,4458.79 7207.99,4459.61C7207.99,4459.61 7208,4460.02 7208.08,4460.97L7208.11,4461.31C7208.16,4461.67 7207.63,4462.32 7206.94,4462.76L7203.96,4464.63C7203.26,4465.07 7202.87,4466.08 7203.08,4466.87L7204.84,4472.25C7205.14,4473.01 7206.05,4473.59 7206.87,4473.53L7210.38,4473.27C7211.2,4473.21 7212.17,4473.66 7212.54,4474.27C7212.9,4474.87 7213.66,4476.98 7213.28,4477.7L7211.65,4480.81C7211.27,4481.54 7211.43,4482.61 7212,4483.18L7216.23,4486.97C7216.88,4487.48 7217.95,4487.51 7218.63,4487.06L7221.54,4485.08C7222.22,4484.62 7223.28,4484.53 7223.9,4484.87C7224.51,4485.21 7226.23,4486.66 7226.26,4487.48L7226.4,4490.99C7226.43,4491.81 7227.1,4492.65 7227.89,4492.87L7233.45,4494.02C7234.26,4494.14 7235.21,4493.64 7235.57,4492.9L7237.1,4489.74C7237.46,4489 7238.42,4488.39 7239.24,4488.38C7239.24,4488.38 7239.65,4488.37 7240.61,4488.29L7240.94,4488.26C7241.3,4488.21 7241.95,4488.74 7242.38,4489.44L7244.26,4492.42C7244.7,4493.11 7245.7,4493.51 7246.49,4493.3L7251.88,4491.54C7252.64,4491.23 7253.22,4490.32 7253.16,4489.51L7252.91,4485.99C7252.85,4485.17 7253.29,4484.2 7253.9,4483.83C7254.5,4483.46 7256.61,4482.71 7257.34,4483.08L7260.45,4484.72C7261.17,4485.1 7262.24,4484.94 7262.82,4484.37L7266.6,4480.14C7267.11,4479.49 7267.15,4478.42 7266.69,4477.74L7264.71,4474.83C7264.25,4474.15 7264.16,4473.09 7264.5,4472.47C7264.83,4471.85 7266.29,4470.14 7267.11,4470.11Z" style="fill:rgb(128,197,192);fill-rule:nonzero;"/>
    </g>
</svg>
