<?xml version="1.0" encoding="UTF-8" standalone="no"?>
<!DOCTYPE svg PUBLIC "-//W3C//DTD SVG 1.1//EN" "http://www.w3.org/Graphics/SVG/1.1/DTD/svg11.dtd">
<svg width="100%" height="100%" viewBox="0 0 573 573" version="1.1" xmlns="http://www.w3.org/2000/svg" xmlns:xlink="http://www.w3.org/1999/xlink" xml:space="preserve" xmlns:serif="http://www.serif.com/" style="fill-rule:evenodd;clip-rule:evenodd;stroke-linejoin:round;stroke-miterlimit:2;">
    <g transform="matrix(4.16667,0,0,4.16667,-28038.3,-16777.6)">
        <path d="M6866.53,4095.28L6864.53,4095.28C6864.53,4113.69 6857.07,4130.35 6845,4142.42C6832.93,4154.48 6816.27,4161.94 6797.86,4161.94C6779.45,4161.94 6762.79,4154.48 6750.72,4142.42C6738.66,4130.35 6731.2,4113.69 6731.2,4095.28C6731.2,4076.87 6738.66,4060.21 6750.72,4048.14C6762.79,4036.08 6779.45,4028.62 6797.86,4028.62C6816.27,4028.62 6832.93,4036.08 6845,4048.14C6857.07,4060.21 6864.53,4076.87 6864.53,4095.28L6866.53,4095.28C6866.53,4057.36 6835.79,4026.62 6797.86,4026.62C6759.94,4026.62 6729.2,4057.36 6729.2,4095.28C6729.2,4133.2 6759.94,4163.94 6797.86,4163.94C6835.79,4163.94 6866.53,4133.2 6866.53,4095.28Z" style="fill:rgb(128,197,192);fill-rule:nonzero;"/>
    </g>
    <g transform="matrix(4.16667,0,0,4.16667,-28038.3,-16777.6)">
        <path d="M6788.63,4121.24L6807.68,4117.57L6807.77,4114.96L6788.53,4118.66L6788.63,4121.24Z" style="fill:rgb(128,197,192);fill-rule:nonzero;"/>
    </g>
    <g transform="matrix(4.16667,0,0,4.16667,-28038.3,-16777.6)">
        <path d="M6788.8,4125.58L6807.53,4121.97L6807.62,4119.37L6788.7,4123.01L6788.8,4125.58Z" style="fill:rgb(128,197,192);fill-rule:nonzero;"/>
    </g>
    <g transform="matrix(4.16667,0,0,4.16667,-28038.3,-16777.6)">
        <path d="M6788.87,4127.46L6788.98,4127.55L6807.26,4127.55L6807.35,4127.47L6807.47,4123.77L6788.87,4127.35L6788.87,4127.46Z" style="fill:rgb(128,197,192);fill-rule:nonzero;"/>
    </g>
    <g transform="matrix(4.16667,0,0,4.16667,-28038.3,-16777.6)">
        <path d="M6801.4,4113.44L6801.43,4112.84L6788.31,4112.84L6788.47,4116.89L6807.82,4113.17L6807.83,4112.84L6803.39,4112.84L6803.37,4113.44L6801.4,4113.44Z" style="fill:rgb(128,197,192);fill-rule:nonzero;"/>
    </g>
    <g transform="matrix(4.16667,0,0,4.16667,-28038.3,-16777.6)">
        <path d="M6812.17,4085.41L6803.87,4100.3L6803.39,4112.84L6807.83,4112.84L6807.82,4113.17L6788.47,4116.89L6788.31,4112.84L6792.33,4112.84L6791.86,4100.3L6783.55,4085.41C6783.33,4085.02 6783.42,4084.56 6783.71,4084.25L6783.91,4084.09L6783.93,4084.07L6783.94,4084.07C6784.09,4083.97 6784.25,4083.9 6784.45,4083.9L6811.04,4083.9C6811.14,4083.9 6811.23,4083.93 6811.31,4083.96C6811.48,4083.96 6811.64,4083.98 6811.79,4084.07C6812.27,4084.33 6812.44,4084.93 6812.17,4085.41ZM6807.68,4117.57L6788.63,4121.24L6788.53,4118.66L6807.77,4114.96L6807.68,4117.57ZM6807.53,4121.97L6788.8,4125.58L6788.7,4123.01L6807.62,4119.37L6807.53,4121.97ZM6807.35,4127.47L6807.26,4127.55L6788.98,4127.55L6788.87,4127.46L6788.87,4127.35L6807.47,4123.77L6807.35,4127.47ZM6797.86,4054.93C6782.65,4054.93 6770.28,4067.31 6770.28,4082.52C6770.28,4092.49 6775.59,4101.24 6783.54,4106.08L6784.36,4126.47C6784.45,4128.81 6786.26,4130.76 6788.52,4131.13C6789.38,4133.69 6793.24,4135.63 6797.86,4135.63C6802.46,4135.63 6806.29,4133.72 6807.18,4131.18C6809.69,4131.05 6811.76,4128.98 6811.85,4126.45L6812.55,4105.85C6820.29,4100.96 6825.45,4092.33 6825.45,4082.52C6825.45,4067.31 6813.07,4054.93 6797.86,4054.93Z" style="fill:rgb(128,197,192);fill-rule:nonzero;"/>
    </g>
    <g transform="matrix(4.16667,0,0,4.16667,-28038.3,-16777.6)">
        <path d="M6801.91,4099.99C6801.91,4099.83 6801.96,4099.68 6802.03,4099.54L6807.45,4089.84L6807.44,4089.84L6808.06,4088.74L6809.67,4085.85L6786.05,4085.85L6787.67,4088.75L6788.27,4089.81L6788.26,4089.81L6793.69,4099.54C6793.77,4099.68 6793.81,4099.83 6793.81,4099.99L6794.3,4112.84L6801.43,4112.84L6801.91,4099.99Z" style="fill:rgb(128,197,192);fill-rule:nonzero;"/>
    </g>
</svg>
