<?xml version="1.0" encoding="UTF-8" standalone="no"?>
<!DOCTYPE svg PUBLIC "-//W3C//DTD SVG 1.1//EN" "http://www.w3.org/Graphics/SVG/1.1/DTD/svg11.dtd">
<svg width="100%" height="100%" viewBox="0 0 573 573" version="1.1" xmlns="http://www.w3.org/2000/svg" xmlns:xlink="http://www.w3.org/1999/xlink" xml:space="preserve" xmlns:serif="http://www.serif.com/" style="fill-rule:evenodd;clip-rule:evenodd;stroke-linejoin:round;stroke-miterlimit:2;">
    <g transform="matrix(4.16667,0,0,4.16667,-31688.5,-16777.6)">
        <path d="M7742.56,4095.28L7740.56,4095.28C7740.56,4113.69 7733.1,4130.35 7721.03,4142.42C7708.97,4154.48 7692.31,4161.94 7673.9,4161.94C7655.48,4161.94 7638.82,4154.48 7626.76,4142.42C7614.69,4130.35 7607.23,4113.69 7607.23,4095.28C7607.23,4076.87 7614.69,4060.21 7626.76,4048.14C7638.82,4036.08 7655.48,4028.62 7673.9,4028.62C7692.31,4028.62 7708.97,4036.08 7721.03,4048.14C7733.1,4060.21 7740.56,4076.87 7740.56,4095.28L7742.56,4095.28C7742.56,4057.36 7711.82,4026.62 7673.9,4026.62C7635.97,4026.62 7605.23,4057.36 7605.23,4095.28C7605.23,4133.2 7635.97,4163.94 7673.9,4163.94C7711.82,4163.94 7742.56,4133.2 7742.56,4095.28Z" style="fill:rgb(128,197,192);fill-rule:nonzero;"/>
    </g>
    <g transform="matrix(4.16667,0,0,4.16667,-31688.5,-16777.6)">
        <path d="M7689.64,4097.76C7689.45,4097.93 7689.26,4098.09 7689.08,4098.25C7688.88,4098.42 7688.69,4098.58 7688.49,4098.74C7688.08,4099.07 7687.66,4099.38 7687.23,4099.68L7678.36,4117.91L7676.59,4107.41L7679.22,4103.19C7678.9,4103.26 7678.58,4103.33 7678.25,4103.39C7677.42,4103.53 7676.58,4103.63 7675.72,4103.69C7675.26,4103.72 7674.79,4103.74 7674.31,4103.74C7672.49,4103.74 7670.72,4103.51 7669.02,4103.11L7671.68,4107.42L7670.02,4118.1L7660.19,4098.79C7659.74,4098.43 7659.3,4098.05 7658.87,4097.65L7658.7,4097.81C7645.53,4109.19 7645.72,4129.11 7645.73,4129.95L7645.74,4130.66L7702.06,4130.66L7702.03,4129.91C7701.1,4106.9 7691.9,4099.29 7689.64,4097.76Z" style="fill:rgb(128,197,192);fill-rule:nonzero;"/>
    </g>
    <g transform="matrix(4.16667,0,0,4.16667,-31688.5,-16777.6)">
        <path d="M7674.31,4059.91C7662.65,4059.91 7653.17,4069.39 7653.17,4081.05C7653.17,4092.7 7662.65,4102.18 7674.31,4102.18C7685.97,4102.18 7695.45,4092.7 7695.45,4081.05C7695.45,4069.39 7685.97,4059.91 7674.31,4059.91Z" style="fill:rgb(128,197,192);fill-rule:nonzero;"/>
    </g>
</svg>
