<?xml version="1.0" encoding="UTF-8" standalone="no"?>
<!DOCTYPE svg PUBLIC "-//W3C//DTD SVG 1.1//EN" "http://www.w3.org/Graphics/SVG/1.1/DTD/svg11.dtd">
<svg width="100%" height="100%" viewBox="0 0 461 291" version="1.1" xmlns="http://www.w3.org/2000/svg" xmlns:xlink="http://www.w3.org/1999/xlink" xml:space="preserve" xmlns:serif="http://www.serif.com/" style="fill-rule:evenodd;clip-rule:evenodd;stroke-linejoin:round;stroke-miterlimit:2;">
    <g transform="matrix(4.16667,0,0,4.16667,-27577.1,-21054.1)">
        <path d="M6642.77,5058.63C6632.88,5058.63 6624.83,5066.68 6624.83,5076.58C6624.83,5086.47 6632.88,5094.52 6642.77,5094.52C6649.21,5094.52 6654.85,5091.1 6658.02,5085.99C6655.54,5081.95 6652.33,5074.66 6656.11,5064.61C6652.82,5060.95 6648.07,5058.63 6642.77,5058.63Z" style="fill:rgb(136,136,140);fill-rule:nonzero;"/>
    </g>
    <g transform="matrix(4.16667,0,0,4.16667,-27577.1,-21054.1)">
        <path d="M6655.07,5092.02C6654.85,5092.19 6654.58,5092.39 6654.28,5092.6C6652.52,5097.27 6648.03,5100.59 6642.75,5100.59C6637.43,5100.59 6632.91,5097.21 6631.18,5092.49C6630.62,5092.09 6630.19,5091.75 6629.94,5091.55L6629.67,5091.31L6629.52,5091.44C6618.35,5101.1 6618.5,5118.01 6618.51,5118.72L6618.52,5119.32L6646.94,5119.32C6647.38,5112.77 6649.31,5101.12 6657.14,5092.49C6656.57,5091.98 6656.09,5091.61 6655.78,5091.4C6655.63,5091.54 6655.47,5091.68 6655.31,5091.82L6655.07,5092.02Z" style="fill:rgb(136,136,140);fill-rule:nonzero;"/>
    </g>
    <g transform="matrix(4.16667,0,0,4.16667,-27577.1,-21054.1)">
        <path d="M6684.31,5105.92L6676.62,5102L6668.93,5105.92L6668.93,5096.4L6676.62,5100.51L6684.31,5096.4L6684.31,5105.92ZM6691.92,5090.78C6691.74,5090.94 6691.56,5091.1 6691.37,5091.26C6691.28,5091.33 6691.19,5091.41 6691.1,5091.48C6689.35,5092.88 6685.31,5095.5 6679.99,5096.35C6679.46,5096.42 6678.94,5096.5 6678.4,5096.54C6677.95,5096.56 6677.49,5096.58 6677.03,5096.58C6675.35,5096.58 6673.73,5096.38 6672.16,5096.03C6667.2,5094.77 6663.42,5091.84 6662.34,5090.94C6662.24,5090.85 6662.13,5090.77 6662.03,5090.67L6661.85,5090.83C6649.06,5101.88 6649.24,5121.24 6649.25,5122.06L6649.26,5122.74L6704,5122.74L6703.97,5122.02C6703.06,5099.66 6694.12,5092.26 6691.92,5090.78Z" style="fill:rgb(136,136,140);fill-rule:nonzero;"/>
    </g>
    <g transform="matrix(4.16667,0,0,4.16667,-27577.1,-21054.1)">
        <path d="M6656.58,5073.55C6656.58,5084.89 6665.8,5094.1 6677.13,5094.1L6677.14,5094.1C6682.62,5094.1 6687.78,5091.96 6691.67,5088.07C6695.55,5084.18 6697.7,5079.02 6697.69,5073.54C6697.69,5062.21 6688.47,5052.99 6677.13,5052.99C6665.79,5052.99 6656.58,5062.22 6656.58,5073.55Z" style="fill:rgb(136,136,140);fill-rule:nonzero;"/>
    </g>
    <g transform="matrix(4.16667,0,0,4.16667,-27577.1,-21054.1)">
        <path d="M6706.05,5118.29L6729.12,5118.3L6729.13,5117.76C6729.14,5117.11 6728.92,5102.76 6718.88,5094.08L6718.74,5093.96C6718.42,5094.26 6718.08,5094.55 6717.74,5094.82L6710.6,5108.71L6709.34,5100.56L6711.37,5097.28C6710.07,5097.59 6708.72,5097.76 6707.33,5097.76C6706.97,5097.76 6706.61,5097.74 6706.26,5097.72C6705.6,5097.68 6704.96,5097.6 6704.33,5097.49C6704.08,5097.45 6703.84,5097.4 6703.59,5097.34L6705.59,5100.56L6704.26,5108.32C6705.33,5112.12 6705.82,5115.78 6706.05,5118.29Z" style="fill:rgb(136,136,140);fill-rule:nonzero;"/>
    </g>
    <g transform="matrix(4.16667,0,0,4.16667,-27577.1,-21054.1)">
        <path d="M6708.02,5095.56C6716.91,5095.56 6724.15,5088.33 6724.15,5079.44C6724.15,5070.55 6716.92,5063.31 6708.03,5063.31C6704.41,5063.31 6701.07,5064.51 6698.37,5066.53C6699.21,5068.83 6699.67,5071.32 6699.67,5073.92C6699.67,5079.31 6697.68,5084.25 6694.4,5088.04C6697.26,5092.55 6702.3,5095.55 6708.02,5095.56Z" style="fill:rgb(136,136,140);fill-rule:nonzero;"/>
    </g>
</svg>
