<?xml version="1.0" encoding="UTF-8" standalone="no"?>
<!DOCTYPE svg PUBLIC "-//W3C//DTD SVG 1.1//EN" "http://www.w3.org/Graphics/SVG/1.1/DTD/svg11.dtd">
<svg width="100%" height="100%" viewBox="0 0 573 573" version="1.1" xmlns="http://www.w3.org/2000/svg" xmlns:xlink="http://www.w3.org/1999/xlink" xml:space="preserve" xmlns:serif="http://www.serif.com/" style="fill-rule:evenodd;clip-rule:evenodd;stroke-linejoin:round;stroke-miterlimit:2;">
    <g transform="matrix(4.16667,0,0,4.16667,-31688.5,-18277.3)">
        <path d="M7742.56,4455.2L7740.56,4455.2C7740.56,4473.62 7733.1,4490.28 7721.03,4502.34C7708.97,4514.41 7692.31,4521.87 7673.9,4521.87C7655.48,4521.87 7638.82,4514.41 7626.76,4502.34C7614.69,4490.28 7607.23,4473.62 7607.23,4455.2C7607.23,4436.79 7614.69,4420.13 7626.76,4408.07C7638.82,4396 7655.48,4388.54 7673.9,4388.54C7692.31,4388.54 7708.97,4396 7721.03,4408.07C7733.1,4420.13 7740.56,4436.79 7740.56,4455.2L7742.56,4455.2C7742.56,4417.28 7711.82,4386.54 7673.9,4386.54C7635.97,4386.54 7605.23,4417.28 7605.23,4455.2C7605.23,4493.13 7635.97,4523.87 7673.9,4523.87C7711.82,4523.87 7742.56,4493.13 7742.56,4455.2Z" style="fill:rgb(128,197,192);fill-rule:nonzero;"/>
    </g>
    <g transform="matrix(4.16667,0,0,4.16667,-31688.5,-18277.3)">
        <path d="M7700.7,4444.49C7701.73,4443.6 7701.51,4442.52 7700.22,4442.09L7695.6,4440.54C7694.31,4440.11 7693.66,4438.72 7694.16,4437.45L7695.94,4432.92C7696.44,4431.65 7695.74,4430.78 7694.4,4431L7689.59,4431.78C7688.24,4432 7687.02,4431.07 7686.87,4429.71L7686.35,4424.87C7686.2,4423.51 7685.19,4423.08 7684.09,4423.9L7680.2,4426.82C7679.11,4427.64 7677.59,4427.38 7676.83,4426.25L7674.12,4422.21C7673.35,4421.08 7672.25,4421.16 7671.67,4422.39L7669.58,4426.79C7668.99,4428.02 7667.53,4428.5 7666.33,4427.85L7662.05,4425.53C7660.85,4424.88 7659.91,4425.47 7659.96,4426.83L7660.16,4431.7C7660.21,4433.06 7659.14,4434.16 7657.77,4434.15L7652.91,4434.09C7651.54,4434.07 7650.98,4435.02 7651.67,4436.2L7654.1,4440.42C7654.78,4441.61 7654.34,4443.08 7653.13,4443.7L7648.79,4445.91C7647.57,4446.53 7647.52,4447.63 7648.67,4448.36L7652.79,4450.96C7653.94,4451.7 7654.24,4453.2 7653.45,4454.32L7650.63,4458.29C7649.85,4459.4 7650.31,4460.4 7651.67,4460.51L7656.53,4460.91C7657.89,4461.02 7658.85,4462.21 7658.67,4463.57L7658.02,4468.39C7657.84,4469.74 7658.72,4470.41 7659.98,4469.88L7664.46,4467.98C7665.71,4467.44 7667.12,4468.05 7667.59,4469.33L7669.26,4473.91C7669.73,4475.19 7670.82,4475.37 7671.68,4474.32L7674.76,4470.55C7675.63,4469.49 7677.16,4469.38 7678.17,4470.29L7681.78,4473.57C7682.79,4474.48 7683.84,4474.14 7684.11,4472.8L7685.09,4468.03C7685.36,4466.7 7686.66,4465.88 7687.98,4466.23L7692.7,4467.45C7694.02,4467.79 7694.79,4467 7694.41,4465.69L7693.06,4461.01C7692.68,4459.7 7693.46,4458.38 7694.78,4458.07L7699.53,4456.96C7700.85,4456.65 7701.17,4455.59 7700.22,4454.6L7696.85,4451.09C7695.91,4450.1 7695.98,4448.57 7697.01,4447.68L7700.7,4444.49Z" style="fill:rgb(128,197,192);fill-rule:nonzero;"/>
    </g>
    <g transform="matrix(4.16667,0,0,4.16667,-31688.5,-18277.3)">
        <path d="M7694.78,4462.6L7696.14,4467.27C7696.51,4468.58 7695.74,4469.37 7694.42,4469.03L7689.71,4467.81C7688.39,4467.47 7687.09,4468.28 7686.81,4469.62L7685.97,4473.72L7699.76,4489L7700.85,4479.68L7710.44,4479.36L7694.69,4461.89C7694.69,4462.13 7694.71,4462.36 7694.78,4462.6Z" style="fill:rgb(128,197,192);fill-rule:nonzero;"/>
    </g>
    <g transform="matrix(4.16667,0,0,4.16667,-31688.5,-18277.3)">
        <path d="M7662.73,4469.85L7658.25,4471.75C7657,4472.29 7656.12,4471.62 7656.3,4470.26L7656.94,4465.44C7657.12,4464.09 7656.16,4462.89 7654.8,4462.78L7654.1,4462.72L7637.35,4477.83L7646.66,4478.92L7646.98,4488.52L7665.94,4471.42L7665.86,4471.2C7665.4,4469.92 7663.99,4469.31 7662.73,4469.85Z" style="fill:rgb(128,197,192);fill-rule:nonzero;"/>
    </g>
</svg>
