<?xml version="1.0" encoding="UTF-8" standalone="no"?>
<!DOCTYPE svg PUBLIC "-//W3C//DTD SVG 1.1//EN" "http://www.w3.org/Graphics/SVG/1.1/DTD/svg11.dtd">
<svg width="100%" height="100%" viewBox="0 0 104 104" version="1.1" xmlns="http://www.w3.org/2000/svg" xmlns:xlink="http://www.w3.org/1999/xlink" xml:space="preserve" xmlns:serif="http://www.serif.com/" style="fill-rule:evenodd;clip-rule:evenodd;stroke-linejoin:round;stroke-miterlimit:2;">
    <g transform="matrix(4.16667,0,0,4.16667,-31654.7,-24016.8)">
        <path d="M7621.9,5776.41C7621.9,5783.25 7616.36,5788.79 7609.51,5788.79C7602.67,5788.79 7597.13,5783.25 7597.13,5776.41C7597.13,5769.56 7602.67,5764.02 7609.51,5764.02C7616.36,5764.02 7621.9,5769.56 7621.9,5776.41Z" style="fill:white;fill-rule:nonzero;"/>
    </g>
    <g transform="matrix(4.16667,0,0,4.16667,-31654.7,-24016.8)">
        <path d="M7612.38,5775.27L7609.63,5775.27L7609.63,5784.54L7606.45,5784.54L7606.45,5775.27L7604.7,5775.27L7604.7,5773.74L7606.45,5772.89L7606.45,5772.03C7606.45,5770.7 7606.78,5769.73 7607.43,5769.12C7608.09,5768.51 7609.13,5768.2 7610.57,5768.2C7611.67,5768.2 7612.64,5768.36 7613.5,5768.69L7612.68,5771.03C7612.05,5770.83 7611.45,5770.72 7610.91,5770.72C7610.45,5770.72 7610.14,5770.86 7609.93,5771.13C7609.73,5771.39 7609.63,5771.74 7609.63,5772.15L7609.63,5772.89L7612.38,5772.89L7612.38,5775.27Z" style="fill:rgb(128,197,192);fill-rule:nonzero;"/>
    </g>
</svg>
