<?xml version="1.0" encoding="UTF-8" standalone="no"?>
<!DOCTYPE svg PUBLIC "-//W3C//DTD SVG 1.1//EN" "http://www.w3.org/Graphics/SVG/1.1/DTD/svg11.dtd">
<svg width="100%" height="100%" viewBox="0 0 416 365" version="1.1" xmlns="http://www.w3.org/2000/svg" xmlns:xlink="http://www.w3.org/1999/xlink" xml:space="preserve" xmlns:serif="http://www.serif.com/" style="fill-rule:evenodd;clip-rule:evenodd;stroke-linejoin:round;stroke-miterlimit:2;">
    <g transform="matrix(4.16667,0,0,4.16667,-30747.9,-20980.7)">
        <path d="M7461.92,5122.74C7463.7,5122.74 7465.15,5121.3 7465.15,5119.52L7465.15,5085L7473.64,5085C7476.73,5085 7479.25,5082.49 7479.25,5079.39C7479.25,5077.62 7478.42,5076.04 7477.14,5075.01L7466.18,5065.5L7466.18,5049.67C7466.18,5047.82 7464.68,5046.32 7462.83,5046.32L7455.89,5046.32C7454.04,5046.32 7452.54,5047.82 7452.54,5049.67L7452.54,5053.66L7433.04,5036.73C7430.93,5034.9 7427.8,5034.9 7425.69,5036.73L7381.42,5075.16C7379.65,5076.69 7379.03,5079.16 7379.84,5081.36C7380.66,5083.55 7382.76,5085 7385.09,5085L7393.58,5085L7393.58,5119.52C7393.58,5121.3 7395.03,5122.74 7396.81,5122.74L7415.88,5122.74L7415.88,5097.65C7415.88,5094.1 7418.76,5091.22 7422.31,5091.22L7436.43,5091.22C7439.98,5091.22 7442.85,5094.1 7442.85,5097.65L7442.85,5122.74L7461.92,5122.74Z" style="fill:rgb(136,136,140);fill-rule:nonzero;"/>
    </g>
</svg>
