<?xml version="1.0" encoding="UTF-8" standalone="no"?>
<!DOCTYPE svg PUBLIC "-//W3C//DTD SVG 1.1//EN" "http://www.w3.org/Graphics/SVG/1.1/DTD/svg11.dtd">
<svg width="100%" height="100%" viewBox="0 0 1004 248" version="1.1" xmlns="http://www.w3.org/2000/svg" xmlns:xlink="http://www.w3.org/1999/xlink" xml:space="preserve" xmlns:serif="http://www.serif.com/" style="fill-rule:evenodd;clip-rule:evenodd;stroke-linejoin:round;stroke-miterlimit:2;">
    <g transform="matrix(4.16667,0,0,4.16667,-2296.9,-9767.83)">
        <path d="M559.84,2370.81C559.84,2370.81 558.67,2366.52 559.605,2364.42C560.971,2361.99 558.159,2361.29 559.84,2357.55C561.244,2354.39 563.702,2352.87 566.508,2351.42C569.32,2349.98 567.72,2348.26 567.72,2348.26C567.72,2348.57 567.762,2350.14 566.669,2350.53C564.442,2351.31 560.58,2353.18 558.393,2355.44C556.21,2357.71 554.964,2360.51 555.703,2364.1C556.446,2367.69 559.84,2370.81 559.84,2370.81Z" style="fill:rgb(238,179,101);fill-rule:nonzero;"/>
    </g>
    <g transform="matrix(4.16667,0,0,4.16667,-2296.9,-9767.83)">
        <path d="M560.971,2375.92C560.971,2375.92 560.229,2374.29 559.956,2372.72C559.683,2371.16 559.956,2371.2 558.823,2370.07C555.701,2367.06 555.316,2364.61 555.234,2362.27C555.157,2359.93 553.948,2359.15 553.948,2359.15C553.948,2359.15 554.061,2360.87 553.791,2362.66C553.362,2365.51 553.012,2366.91 555.082,2370.46C557.148,2374.01 560.971,2375.92 560.971,2375.92Z" style="fill:rgb(238,179,101);fill-rule:nonzero;"/>
    </g>
    <g transform="matrix(4.16667,0,0,4.16667,-2296.9,-9767.83)">
        <path d="M552.155,2367.57C551.879,2368.98 551.566,2371.55 554.455,2374.71C557.343,2377.88 560.035,2379.16 562.845,2379.9C562.845,2379.9 561.984,2379.01 561.555,2377.99C561.127,2376.97 561.283,2376.55 559.683,2375.61C558.083,2374.68 555.783,2372.45 555.002,2371.04C554.223,2369.64 553.948,2369.17 553.674,2368.12C553.401,2367.06 553.09,2365.98 553.09,2365.98C552.389,2364.26 551.647,2363.79 551.647,2363.79C551.647,2363.79 552.426,2366.17 552.155,2367.57Z" style="fill:rgb(238,179,101);fill-rule:nonzero;"/>
    </g>
    <g transform="matrix(4.16667,0,0,4.16667,-2296.9,-9767.83)">
        <path d="M558.983,2381.3C561.828,2383.02 564.676,2382.71 564.676,2382.71C564.366,2382.59 563.661,2381.97 563.196,2381.3C562.724,2380.65 562.412,2380.18 560.58,2379.51C558.748,2378.85 555.629,2376.82 553.987,2374.75C552.348,2372.68 551.256,2372.6 551.256,2372.6C551.841,2372.88 552.622,2374.13 553.482,2376.2C554.339,2378.26 556.134,2379.59 558.983,2381.3Z" style="fill:rgb(238,179,101);fill-rule:nonzero;"/>
    </g>
    <g transform="matrix(4.16667,0,0,4.16667,-2296.9,-9767.83)">
        <path d="M560.229,2382.29C558.356,2381.7 556.016,2380.18 556.016,2380.18C556.601,2380.53 558.266,2382.64 558.823,2383.22C559.84,2384.28 560.736,2384.66 563.584,2385.68C566.431,2386.69 567.642,2386.06 567.642,2386.06C567.288,2385.95 566.431,2385.36 566.002,2384.98C565.574,2384.58 564.95,2383.53 564.599,2383.3C564.247,2383.06 562.92,2383.26 560.229,2382.29Z" style="fill:rgb(238,179,101);fill-rule:nonzero;"/>
    </g>
    <g transform="matrix(4.16667,0,0,4.16667,-2296.9,-9767.83)">
        <path d="M567.056,2388.09C569.551,2388.48 571.232,2388.09 572.401,2390.51C572.401,2390.51 572.712,2388.88 570.293,2387.01C568.264,2385.56 566.862,2387.47 564.052,2386.11C564.052,2386.11 564.559,2387.71 567.056,2388.09Z" style="fill:rgb(238,179,101);fill-rule:nonzero;"/>
    </g>
    <g transform="matrix(4.16667,0,0,4.16667,-2296.9,-9767.83)">
        <path d="M568.421,2384.7C567.213,2384.82 565.458,2383.57 565.458,2383.57C566.508,2385.68 567.992,2385.87 569.434,2386.18C570.88,2386.49 571.894,2387.63 571.894,2387.63C571.425,2386.62 571.739,2384.47 571.972,2383.53C572.207,2382.59 573.494,2381.15 572.753,2379.01C571.894,2376.51 567.798,2376.78 564.012,2372.14C560.425,2367.84 560.268,2364.46 560.268,2364.46C560.268,2364.46 559.214,2366.6 559.993,2369.8C561.596,2375.38 566.745,2377.44 566.745,2377.44C562.804,2376.7 560.347,2371.59 560.347,2371.59C560.074,2376.9 566.9,2380.02 566.9,2380.02C564.676,2379.63 561.596,2376.43 561.596,2376.43C562.258,2380.37 567.449,2382.44 567.449,2382.44C565.533,2382.12 563.196,2380.14 563.196,2380.14C564.286,2383.34 568.421,2384.7 568.421,2384.7Z" style="fill:rgb(238,179,101);fill-rule:nonzero;"/>
    </g>
    <g transform="matrix(4.16667,0,0,4.16667,-2296.9,-9767.83)">
        <path d="M561.697,2390.92C561.644,2390.82 561.451,2390.43 561.515,2389.66C561.596,2388.76 561.44,2387.74 560.503,2387.24C560.503,2387.24 560.622,2388.29 560.228,2388.45C560.228,2388.45 560.463,2386.54 559.136,2385.72C559.136,2385.72 559.252,2387.08 558.67,2387.2C558.67,2387.2 559.175,2384.93 557.81,2383.81C557.81,2383.81 558.044,2385.17 557.342,2385.21C557.342,2385.21 558.159,2382.9 556.601,2382.09C556.601,2382.09 557.187,2382.94 556.327,2383.49C556.327,2383.49 556.872,2381.15 554.923,2380.49C554.923,2380.49 553.873,2382.52 555.939,2383.65C555.939,2383.65 555.274,2383.88 554.574,2382.79C554.574,2382.79 554.183,2384.47 556.172,2385.36C556.172,2385.36 555.04,2385.29 554.261,2384.23C554.261,2384.23 554.065,2386.38 557.419,2387.39C557.419,2387.39 556.601,2387.71 555.002,2386.57C555.002,2386.57 554.923,2388.09 559.019,2389.19C559.019,2389.19 558.24,2389.7 556.64,2388.96C556.64,2388.96 556.718,2390.28 559.175,2390.44C561.253,2390.57 561.631,2390.84 561.697,2390.92Z" style="fill:rgb(238,179,101);fill-rule:nonzero;"/>
    </g>
    <g transform="matrix(4.16667,0,0,4.16667,-2296.9,-9767.83)">
        <path d="M562.649,2391.84C562.649,2391.84 563.428,2392.19 564.171,2392.23C564.171,2392.23 563.702,2391.06 563.467,2389.89C563.233,2388.72 563.351,2387.47 561.91,2386.96C561.91,2386.96 562.724,2387.74 562.412,2389.15C562.102,2390.55 562.219,2391.41 562.649,2391.84Z" style="fill:rgb(238,179,101);fill-rule:nonzero;"/>
    </g>
    <g transform="matrix(4.16667,0,0,4.16667,-2296.9,-9767.83)">
        <path d="M559.683,2392.19C559.527,2392.08 558.902,2391.45 559.683,2391.41C560.462,2391.37 561.398,2392.47 563.037,2393.4C564.676,2394.34 566.939,2393.68 568.03,2393.95C569.121,2394.22 569.942,2395.62 569.942,2395.62C570.255,2393.64 568.385,2392.27 565.768,2392.5C563.154,2392.74 561.867,2391.8 561.013,2391.37C560.152,2390.94 558.005,2390.44 557.577,2391.33C557.148,2392.23 558.393,2392.27 558.748,2392.43C559.097,2392.58 560.074,2393.25 560.074,2393.25C560.074,2393.25 560.144,2392.53 559.683,2392.19Z" style="fill:rgb(238,179,101);fill-rule:nonzero;"/>
    </g>
    <g transform="matrix(4.16667,0,0,4.16667,-2296.9,-9767.83)">
        <path d="M564.987,2394.14C564.987,2394.14 563.702,2394.3 562.962,2393.71C562.962,2393.71 564.286,2397.3 570.177,2397.07C570.177,2397.07 566.196,2396.52 564.987,2394.14Z" style="fill:rgb(238,179,101);fill-rule:nonzero;"/>
    </g>
    <g transform="matrix(4.16667,0,0,4.16667,-2296.9,-9767.83)">
        <path d="M562.61,2395.66C560.504,2393.56 559.136,2394.34 559.136,2394.34C559.954,2394.38 560.658,2395.08 562.062,2396.68C563.467,2398.28 565.729,2398.55 567.602,2398.59C569.475,2398.63 570.88,2399.45 570.88,2399.45C569.359,2396.87 565.148,2398.51 562.61,2395.66Z" style="fill:rgb(238,179,101);fill-rule:nonzero;"/>
    </g>
    <g transform="matrix(4.16667,0,0,4.16667,-2296.9,-9767.83)">
        <path d="M572.637,2397.07C574.822,2397.38 575.678,2397.88 577.082,2399.41C577.082,2399.41 577.279,2397.07 574.393,2395.27C572.283,2394.1 570.607,2395.71 570.607,2395.71C570.607,2395.71 570.448,2396.76 572.637,2397.07Z" style="fill:rgb(238,179,101);fill-rule:nonzero;"/>
    </g>
    <g transform="matrix(4.16667,0,0,4.16667,-2296.9,-9767.83)">
        <path d="M576.887,2400.03C576.029,2398.2 574.661,2397.65 572.637,2397.3C570.607,2396.95 569.941,2397.85 569.941,2397.85C569.941,2397.85 570.643,2397.65 571.19,2398.51C571.819,2399.57 572.83,2399.99 574.273,2400.31C575.715,2400.62 576.887,2400.03 576.887,2400.03Z" style="fill:rgb(238,179,101);fill-rule:nonzero;"/>
    </g>
    <g transform="matrix(4.16667,0,0,4.16667,-2296.9,-9767.83)">
        <path d="M587.887,2351.42C590.7,2352.87 593.156,2354.39 594.562,2357.55C596.237,2361.29 593.43,2361.99 594.794,2364.42C595.732,2366.52 594.562,2370.81 594.562,2370.81C594.562,2370.81 597.954,2367.69 598.696,2364.1C599.44,2360.51 598.189,2357.71 596.005,2355.44C593.821,2353.18 589.955,2351.31 587.732,2350.53C586.64,2350.14 586.678,2348.57 586.678,2348.26C586.678,2348.26 585.079,2349.98 587.887,2351.42Z" style="fill:rgb(238,179,101);fill-rule:nonzero;"/>
    </g>
    <g transform="matrix(4.16667,0,0,4.16667,-2296.9,-9767.83)">
        <path d="M595.573,2370.07C594.442,2371.2 594.718,2371.17 594.442,2372.72C594.172,2374.29 593.429,2375.92 593.429,2375.92C593.429,2375.92 597.253,2374.01 599.318,2370.46C601.386,2366.91 601.04,2365.51 600.607,2362.66C600.339,2360.87 600.453,2359.15 600.453,2359.15C600.453,2359.15 599.242,2359.93 599.163,2362.27C599.086,2364.61 598.696,2367.06 595.573,2370.07Z" style="fill:rgb(238,179,101);fill-rule:nonzero;"/>
    </g>
    <g transform="matrix(4.16667,0,0,4.16667,-2296.9,-9767.83)">
        <path d="M599.398,2371.05C598.616,2372.45 596.316,2374.68 594.719,2375.61C593.118,2376.55 593.272,2376.97 592.845,2377.99C592.415,2379.01 591.555,2379.9 591.555,2379.9C594.364,2379.16 597.056,2377.88 599.946,2374.71C602.833,2371.55 602.517,2368.98 602.247,2367.57C601.973,2366.17 602.755,2363.79 602.755,2363.79C602.755,2363.79 602.013,2364.26 601.31,2365.98C601.31,2365.98 600.997,2367.06 600.725,2368.12C600.454,2369.17 600.177,2369.64 599.398,2371.05Z" style="fill:rgb(238,179,101);fill-rule:nonzero;"/>
    </g>
    <g transform="matrix(4.16667,0,0,4.16667,-2296.9,-9767.83)">
        <path d="M600.415,2374.75C598.775,2376.82 595.657,2378.85 593.821,2379.51C591.988,2380.18 591.672,2380.64 591.206,2381.3C590.74,2381.97 590.033,2382.59 589.722,2382.71C589.722,2382.71 592.573,2383.02 595.42,2381.3C598.268,2379.59 600.062,2378.26 600.918,2376.19C601.778,2374.13 602.559,2372.88 603.143,2372.6C603.143,2372.6 602.051,2372.68 600.415,2374.75Z" style="fill:rgb(238,179,101);fill-rule:nonzero;"/>
    </g>
    <g transform="matrix(4.16667,0,0,4.16667,-2296.9,-9767.83)">
        <path d="M595.573,2383.22C596.133,2382.64 597.795,2380.53 598.385,2380.18C598.385,2380.18 596.042,2381.7 594.172,2382.29C591.479,2383.26 590.153,2383.06 589.804,2383.3C589.452,2383.53 588.823,2384.58 588.392,2384.98C587.969,2385.36 587.108,2385.95 586.757,2386.06C586.757,2386.06 587.969,2386.69 590.816,2385.68C593.663,2384.66 594.562,2384.28 595.573,2383.22Z" style="fill:rgb(238,179,101);fill-rule:nonzero;"/>
    </g>
    <g transform="matrix(4.16667,0,0,4.16667,-2296.9,-9767.83)">
        <path d="M592.807,2376.43C592.807,2376.43 589.722,2379.63 587.501,2380.02C587.501,2380.02 594.328,2376.9 594.054,2371.59C594.054,2371.59 591.597,2376.7 587.657,2377.44C587.657,2377.44 592.807,2375.38 594.403,2369.8C595.185,2366.6 594.132,2364.45 594.132,2364.45C594.132,2364.45 593.979,2367.84 590.385,2372.14C586.143,2377.33 583.024,2375.98 581.432,2379.16C581.432,2379.16 580.921,2380.18 581.216,2381.58C581.502,2382.97 582.882,2385.23 581.36,2385.41C579.929,2385.56 578.57,2383.95 578.278,2382.59C578.278,2382.59 577.936,2383.93 578.59,2385.54C579.238,2387.15 581.539,2387.95 583.803,2387.04C586.071,2386.14 587.737,2385.31 589.092,2383.46C589.092,2383.46 587.187,2384.82 585.978,2384.7C585.978,2384.7 590.117,2383.34 591.206,2380.14C591.206,2380.14 588.861,2382.12 586.956,2382.43C586.956,2382.43 592.144,2380.37 592.807,2376.43Z" style="fill:rgb(238,179,101);fill-rule:nonzero;"/>
    </g>
    <g transform="matrix(4.16667,0,0,4.16667,-2296.9,-9767.83)">
        <path d="M600.141,2384.23C599.361,2385.29 598.228,2385.36 598.228,2385.36C600.217,2384.47 599.826,2382.79 599.826,2382.79C599.125,2383.88 598.463,2383.65 598.463,2383.65C600.529,2382.52 599.477,2380.49 599.477,2380.49C597.525,2381.15 598.069,2383.49 598.069,2383.49C597.212,2382.94 597.796,2382.09 597.796,2382.09C596.238,2382.9 597.056,2385.21 597.056,2385.21C596.355,2385.17 596.59,2383.81 596.59,2383.81C595.224,2384.93 595.733,2387.2 595.733,2387.2C595.144,2387.08 595.261,2385.72 595.261,2385.72C593.938,2386.54 594.173,2388.45 594.173,2388.45C593.78,2388.29 593.898,2387.24 593.898,2387.24C592.96,2387.74 592.808,2388.76 592.884,2389.66C592.951,2390.43 592.756,2390.82 592.703,2390.92C592.771,2390.84 593.147,2390.57 595.225,2390.44C597.685,2390.28 597.759,2388.96 597.759,2388.96C596.163,2389.7 595.381,2389.19 595.381,2389.19C599.477,2388.1 599.399,2386.58 599.399,2386.58C597.796,2387.71 596.979,2387.39 596.979,2387.39C600.334,2386.38 600.141,2384.23 600.141,2384.23Z" style="fill:rgb(238,179,101);fill-rule:nonzero;"/>
    </g>
    <g transform="matrix(4.16667,0,0,4.16667,-2296.9,-9767.83)">
        <path d="M592.493,2386.96C591.046,2387.47 591.165,2388.72 590.929,2389.89C590.7,2391.06 590.232,2392.23 590.232,2392.23C590.971,2392.19 591.753,2391.84 591.753,2391.84C592.18,2391.41 592.297,2390.55 591.987,2389.15C591.673,2387.74 592.493,2386.96 592.493,2386.96Z" style="fill:rgb(238,179,101);fill-rule:nonzero;"/>
    </g>
    <g transform="matrix(4.16667,0,0,4.16667,-2296.9,-9767.83)">
        <path d="M593.39,2391.37C592.532,2391.8 591.245,2392.74 588.631,2392.5C586.015,2392.27 584.144,2393.64 584.457,2395.62C584.457,2395.62 585.273,2394.22 586.366,2393.95C587.462,2393.68 589.721,2394.34 591.362,2393.4C592.998,2392.47 593.936,2391.37 594.718,2391.41C595.497,2391.45 594.872,2392.08 594.718,2392.19C594.256,2392.53 594.327,2393.25 594.327,2393.25C594.327,2393.25 595.302,2392.58 595.652,2392.43C596.004,2392.27 597.253,2392.23 596.824,2391.33C596.394,2390.44 594.249,2390.94 593.39,2391.37Z" style="fill:rgb(238,179,101);fill-rule:nonzero;"/>
    </g>
    <g transform="matrix(4.16667,0,0,4.16667,-2296.9,-9767.83)">
        <path d="M591.439,2393.71C590.7,2394.3 589.411,2394.14 589.411,2394.14C588.201,2396.52 584.222,2397.07 584.222,2397.07C590.117,2397.3 591.439,2393.71 591.439,2393.71Z" style="fill:rgb(238,179,101);fill-rule:nonzero;"/>
    </g>
    <g transform="matrix(4.16667,0,0,4.16667,-2296.9,-9767.83)">
        <path d="M591.789,2395.66C589.254,2398.51 585.04,2396.87 583.522,2399.45C583.522,2399.45 584.923,2398.63 586.794,2398.59C588.67,2398.55 590.929,2398.28 592.336,2396.68C593.739,2395.08 594.443,2394.38 595.263,2394.34C595.263,2394.34 593.897,2393.56 591.789,2395.66Z" style="fill:rgb(238,179,101);fill-rule:nonzero;"/>
    </g>
    <g transform="matrix(4.16667,0,0,4.16667,-2296.9,-9767.83)">
        <path d="M578.841,2400.73C578.057,2400.69 577.705,2400.38 577.2,2400.14C576.692,2400.38 576.342,2400.69 575.561,2400.73C574.782,2400.78 574.353,2401.05 574.237,2401.48C574.237,2401.48 576.342,2401.32 577.2,2403.62C578.06,2401.32 580.165,2401.48 580.165,2401.48C580.048,2401.05 579.618,2400.78 578.841,2400.73Z" style="fill:rgb(238,179,101);fill-rule:nonzero;"/>
    </g>
    <g transform="matrix(4.16667,0,0,4.16667,-2296.9,-9767.83)">
        <path d="M578.291,2396.21C579.109,2395.55 579.813,2395.08 578.878,2394.65C577.942,2394.22 577.745,2394.2 577.199,2394.2C576.655,2394.2 576.457,2394.22 575.524,2394.65C574.586,2395.08 575.287,2395.55 576.108,2396.21C576.929,2396.88 577.199,2397.94 577.199,2397.94C577.199,2397.94 577.473,2396.88 578.291,2396.21Z" style="fill:rgb(238,179,101);fill-rule:nonzero;"/>
    </g>
    <g transform="matrix(4.16667,0,0,4.16667,-2296.9,-9767.83)">
        <path d="M581.765,2397.07C583.948,2396.76 583.795,2395.71 583.795,2395.71C583.795,2395.71 582.114,2394.1 580.008,2395.27C577.121,2397.07 577.319,2399.41 577.319,2399.41C578.722,2397.88 579.581,2397.38 581.765,2397.07Z" style="fill:rgb(238,179,101);fill-rule:nonzero;"/>
    </g>
    <g transform="matrix(4.16667,0,0,4.16667,-2296.9,-9767.83)">
        <path d="M584.457,2397.85C584.457,2397.85 583.795,2396.95 581.765,2397.3C579.735,2397.65 578.37,2398.2 577.513,2400.03C577.513,2400.03 578.682,2400.62 580.126,2400.3C581.57,2399.99 582.585,2399.57 583.209,2398.51C583.756,2397.65 584.457,2397.85 584.457,2397.85Z" style="fill:rgb(238,179,101);fill-rule:nonzero;"/>
    </g>
    <g transform="matrix(4.16667,0,0,4.16667,-2296.9,-9767.83)">
        <path d="M586.484,2386.31C586.484,2386.31 583.585,2387.81 581.833,2387.73C580.073,2387.66 579.098,2387.1 578.604,2386.27C578.604,2386.27 578.841,2388.01 581.216,2388.76C583.585,2389.53 588.261,2387.99 590.577,2386.23C590.578,2386.23 588.915,2386.97 586.484,2386.31Z" style="fill:rgb(238,179,101);fill-rule:nonzero;"/>
    </g>
    <g transform="matrix(4.16667,0,0,4.16667,-2296.9,-9767.83)">
        <path d="M574.404,2372.54C576.035,2373.72 574.731,2375.35 576.505,2375.83C578.277,2376.33 577.191,2377.79 576.956,2378.19C576.719,2378.59 574.457,2382.44 573.913,2383.3C573.371,2384.14 570.889,2387.97 573.932,2391.75C576.973,2395.54 586.411,2394.54 588.81,2387.58C588.81,2387.58 587.507,2388.74 583.393,2389.47C583.393,2389.47 582.467,2390.87 580.55,2390.01C578.629,2389.16 577.981,2386.14 577.77,2382.99C577.566,2379.83 579.039,2378.08 579.556,2376.43C580.068,2374.79 580.514,2373.11 578.285,2371.87C576.984,2371.19 577.637,2370.02 578.423,2371.05C579.21,2372.08 579.863,2373.14 582.193,2372.87C583.771,2372.63 583.633,2370.54 583.633,2370.54C583.633,2370.54 582.432,2372.18 580.617,2371.26C578.802,2370.34 577.741,2368.05 575.254,2369.69C575.254,2369.69 574.946,2368.46 575.596,2368.08C576.248,2367.7 577.59,2368.01 578.967,2369.06C580.346,2370.11 582.481,2369.96 583.096,2369.6C583.712,2369.24 585.143,2367.86 584.674,2366.72C584.674,2366.72 583.134,2367.74 581.792,2367.66C580.455,2367.59 579.077,2366.61 578.1,2365.71C577.121,2364.8 574.711,2365.6 574.183,2366.61C573.659,2367.63 573.642,2369.33 574.33,2370.33C574.33,2370.33 571.866,2370.47 571.397,2372.66C571.397,2372.66 573.302,2371.74 574.404,2372.54ZM577.982,2372.56C578.699,2373.32 577.155,2373.93 576.915,2372.7C576.742,2372.01 576.231,2371.91 576.231,2371.91C576.231,2371.91 577.258,2371.81 577.982,2372.56Z" style="fill:rgb(238,179,101);fill-rule:nonzero;"/>
    </g>
    <g transform="matrix(4.16667,0,0,4.16667,-2296.9,-9767.83)">
        <path d="M585.742,2352.82C585.742,2357.54 581.917,2361.37 577.199,2361.37C572.48,2361.37 568.657,2357.54 568.657,2352.82C568.657,2348.1 572.48,2344.28 577.199,2344.28C581.917,2344.28 585.742,2348.11 585.742,2352.82Z" style="fill:rgb(128,197,192);fill-rule:nonzero;"/>
    </g>
    <g transform="matrix(4.16667,0,0,4.16667,-2296.9,-9767.83)">
        <path d="M577.127,2358.56L577.856,2355.51L580.054,2357.8L579.135,2354.8L582.157,2355.71L579.87,2353.54L582.937,2352.82L579.864,2352.08L582.151,2349.92L579.124,2350.84L580.04,2347.84L577.912,2350.15L577.194,2347.09L576.496,2350.15L574.307,2347.87L575.242,2350.87L572.243,2349.93L574.532,2352.09L571.462,2352.82L574.525,2353.53L572.239,2355.71L575.231,2354.77L574.29,2357.77L576.443,2355.48L577.127,2358.56Z" style="fill:white;fill-rule:nonzero;"/>
    </g>
    <g transform="matrix(4.16667,0,0,4.16667,-2296.9,-9767.83)">
        <path d="M577.201,2349.65C575.446,2349.65 574.027,2351.07 574.027,2352.83C574.027,2354.57 575.446,2356 577.201,2356C578.951,2356 580.372,2354.57 580.372,2352.83C580.372,2351.07 578.951,2349.65 577.201,2349.65ZM577.201,2355.59C575.675,2355.59 574.44,2354.35 574.44,2352.83C574.44,2351.3 575.675,2350.06 577.201,2350.06C578.727,2350.06 579.961,2351.3 579.961,2352.83C579.961,2354.35 578.727,2355.59 577.201,2355.59Z" style="fill:rgb(128,197,192);fill-rule:nonzero;"/>
    </g>
    <g transform="matrix(4.16667,0,0,4.16667,-2296.9,-9767.83)">
        <path d="M623.328,2367.14C622.269,2367.14 621.3,2367.14 620.422,2367.11C619.544,2367.11 618.696,2367.11 617.94,2367.08C617.183,2367.05 616.426,2367.02 615.699,2366.99C615.79,2367.57 615.881,2368.38 615.972,2369.44C616.032,2370.53 616.063,2371.8 616.063,2373.26L616.063,2381.49C616.063,2383.01 616.032,2384.34 615.972,2385.49C615.881,2386.67 615.79,2387.7 615.699,2388.64L617.94,2388.64C617.909,2387.97 617.909,2387.34 617.909,2386.76C617.879,2386.18 617.879,2385.61 617.879,2385.03L617.879,2368.66L626.689,2368.66C626.477,2369.78 626.144,2370.96 625.69,2372.14C625.205,2373.32 624.6,2374.47 623.904,2375.59C623.207,2376.71 622.39,2377.74 621.512,2378.71C620.604,2379.71 619.635,2380.55 618.606,2381.28C619.029,2381.43 619.362,2381.64 619.635,2381.86C619.907,2382.07 620.15,2382.37 620.362,2382.73C622.087,2381.16 623.54,2379.4 624.751,2377.47C625.962,2375.56 626.87,2373.44 627.506,2371.17C628.081,2373.62 628.899,2375.71 629.898,2377.5C630.897,2379.28 632.108,2380.83 633.5,2382.19C633.682,2381.86 633.894,2381.55 634.136,2381.31C634.378,2381.1 634.711,2380.86 635.135,2380.64C634.318,2380.04 633.561,2379.37 632.865,2378.62C632.168,2377.86 631.563,2377.01 631.018,2376.04C630.443,2375.1 629.958,2374.01 629.534,2372.8C629.111,2371.59 628.747,2370.2 628.445,2368.66L635.983,2368.66L635.983,2384.46C635.983,2384.94 635.952,2385.34 635.862,2385.61C635.771,2385.88 635.589,2386.09 635.286,2386.18C634.984,2386.28 634.53,2386.31 633.924,2386.22C633.288,2386.15 632.471,2386 631.411,2385.76C632.047,2386.64 632.32,2387.49 632.259,2388.3C633.44,2388.33 634.408,2388.3 635.165,2388.15C635.892,2388.03 636.467,2387.82 636.861,2387.55C637.254,2387.27 637.496,2386.88 637.648,2386.43C637.769,2385.97 637.829,2385.4 637.829,2384.73L637.829,2373.44C637.829,2372.38 637.829,2371.5 637.86,2370.78C637.86,2370.05 637.86,2369.44 637.89,2368.96C637.89,2368.47 637.92,2368.08 637.95,2367.78C637.981,2367.48 638.011,2367.2 638.041,2366.99C637.345,2367.02 636.679,2367.05 636.104,2367.08C635.529,2367.11 634.893,2367.11 634.197,2367.14C633.5,2367.17 632.683,2367.17 631.744,2367.17L628.202,2367.17C627.96,2365.57 627.779,2363.84 627.657,2361.93C627.415,2361.97 627.173,2361.97 626.931,2362C626.689,2362.03 626.386,2362.03 626.053,2362.03C625.72,2362.06 625.296,2362.06 624.812,2362.06L622.935,2362.06C622.117,2362.06 621.33,2362.06 620.634,2362.03C619.938,2362 619.241,2361.97 618.606,2361.93L618.606,2363.69C619.272,2363.66 619.907,2363.63 620.513,2363.6C621.118,2363.57 621.754,2363.57 622.39,2363.57L626.416,2363.57C626.447,2364.21 626.507,2364.84 626.568,2365.42C626.628,2365.99 626.689,2366.6 626.749,2367.17C625.508,2367.17 624.358,2367.17 623.328,2367.14Z" style="fill:rgb(107,111,114);fill-rule:nonzero;"/>
    </g>
    <g transform="matrix(4.16667,0,0,4.16667,-2296.9,-9767.83)">
        <path d="M665.62,2369.14C665.56,2371.23 665.287,2373.14 664.833,2374.86C664.379,2376.62 663.804,2378.07 663.108,2379.25C662.744,2378.77 662.381,2378.25 662.048,2377.68C661.715,2377.1 661.382,2376.53 661.11,2375.92C660.807,2375.35 660.534,2374.74 660.322,2374.11C660.08,2373.47 659.899,2372.86 659.747,2372.26L658.264,2372.77C658.476,2373.47 658.718,2374.2 658.99,2374.92C659.263,2375.65 659.596,2376.35 659.929,2377.04C660.262,2377.74 660.595,2378.4 660.988,2379.04C661.352,2379.68 661.715,2380.25 662.078,2380.77C660.958,2382.19 659.656,2383.37 658.173,2384.37C656.69,2385.37 654.994,2386.06 653.148,2386.52C653.602,2386.76 653.995,2387.03 654.359,2387.34C654.722,2387.64 654.994,2387.91 655.206,2388.18C656.659,2387.52 658.052,2386.7 659.414,2385.7C660.777,2384.73 662.018,2383.55 663.138,2382.16C663.592,2382.7 664.076,2383.25 664.591,2383.79C665.106,2384.34 665.62,2384.85 666.196,2385.37C666.771,2385.88 667.346,2386.37 667.951,2386.82C668.527,2387.27 669.132,2387.7 669.707,2388.06C669.768,2387.94 669.859,2387.79 670.01,2387.61C670.131,2387.46 670.282,2387.27 670.434,2387.12C670.585,2386.97 670.767,2386.79 670.948,2386.64C671.1,2386.49 671.281,2386.4 671.433,2386.31C670.555,2385.85 669.768,2385.43 669.102,2385.03C668.436,2384.64 667.83,2384.25 667.285,2383.79C666.71,2383.37 666.196,2382.91 665.711,2382.4C665.227,2381.89 664.712,2381.31 664.197,2380.68C664.621,2380.01 665.015,2379.31 665.348,2378.56C665.681,2377.83 665.984,2377.01 666.256,2376.07C666.529,2375.16 666.74,2374.14 666.952,2373.02C667.164,2371.89 667.346,2370.59 667.497,2369.14C668.194,2369.17 668.769,2369.17 669.253,2369.2C669.707,2369.23 670.101,2369.26 670.373,2369.35L670.373,2367.35C669.98,2367.45 669.465,2367.51 668.769,2367.54C668.072,2367.57 667.164,2367.57 666.044,2367.57L660.05,2367.57C660.262,2367.05 660.474,2366.57 660.655,2366.08C660.837,2365.6 660.988,2365.11 661.14,2364.66C661.352,2363.99 661.594,2363.48 661.806,2363.09C662.018,2362.69 662.29,2362.39 662.563,2362.18C662.744,2362.03 662.805,2361.91 662.775,2361.75C662.744,2361.63 662.593,2361.54 662.351,2361.51C661.957,2361.45 661.533,2361.36 661.14,2361.27C660.716,2361.18 660.353,2361.06 660.05,2360.97C659.868,2363.03 659.384,2364.93 658.597,2366.66C657.779,2368.41 656.629,2370.17 655.085,2371.89C655.479,2371.99 655.842,2372.08 656.175,2372.17C656.508,2372.29 656.811,2372.47 657.144,2372.68C657.901,2371.74 658.627,2370.56 659.323,2369.14L665.62,2369.14ZM652.209,2365.84C653.299,2365.87 654.268,2365.9 655.085,2365.93C655.902,2365.96 656.659,2366.02 657.295,2366.08L657.295,2364.21C656.508,2364.3 655.569,2364.36 654.51,2364.39C653.42,2364.42 652.118,2364.45 650.635,2364.45C649.151,2364.45 647.88,2364.42 646.79,2364.39C645.7,2364.36 644.762,2364.3 643.975,2364.21L643.975,2366.08C644.732,2365.99 645.67,2365.93 646.73,2365.9C647.789,2365.87 649.03,2365.84 650.453,2365.84L650.453,2383.49C649.424,2383.73 648.334,2383.94 647.214,2384.13L647.214,2373.62C647.214,2372.62 647.396,2371.99 647.789,2371.71C648.001,2371.56 648.062,2371.44 648.031,2371.32C648.001,2371.2 647.85,2371.14 647.608,2371.11C646.79,2371.08 646.033,2370.99 645.276,2370.84C645.367,2371.29 645.428,2371.8 645.458,2372.38C645.488,2372.95 645.488,2373.71 645.488,2374.71L645.488,2384.37C645.034,2384.4 644.61,2384.46 644.187,2384.49C643.733,2384.52 643.309,2384.55 642.855,2384.58C643.006,2384.91 643.157,2385.25 643.278,2385.61C643.369,2385.97 643.46,2386.34 643.49,2386.73C644.187,2386.58 645.065,2386.37 646.124,2386.09C647.153,2385.85 648.274,2385.58 649.484,2385.28C650.695,2384.97 651.937,2384.64 653.238,2384.31C654.54,2383.97 655.781,2383.61 656.992,2383.28C656.902,2383.01 656.871,2382.7 656.841,2382.37C656.811,2382.07 656.811,2381.73 656.871,2381.4C656.235,2381.7 655.509,2381.98 654.722,2382.25C653.935,2382.52 653.087,2382.79 652.209,2383.04L652.209,2375.14C653.299,2375.14 654.207,2375.16 654.903,2375.2C655.6,2375.23 656.175,2375.29 656.629,2375.38L656.629,2373.47C656.175,2373.53 655.6,2373.59 654.903,2373.62C654.207,2373.65 653.299,2373.68 652.209,2373.68L652.209,2365.84Z" style="fill:rgb(107,111,114);fill-rule:nonzero;"/>
    </g>
    <g transform="matrix(4.16667,0,0,4.16667,-2296.9,-9767.83)">
        <path d="M700.435,2377.98C700.223,2377.35 699.951,2376.74 699.588,2376.13C699.224,2375.53 698.801,2374.95 698.316,2374.41C697.801,2373.86 697.287,2373.38 696.712,2372.99C696.954,2372.47 697.226,2371.8 697.559,2371.02C697.862,2370.23 698.195,2369.38 698.528,2368.51C698.861,2367.63 699.194,2366.72 699.527,2365.78C699.86,2364.84 700.163,2363.96 700.435,2363.15C699.86,2363.21 699.134,2363.27 698.256,2363.3C697.347,2363.33 696.439,2363.36 695.561,2363.36C694.592,2363.36 693.654,2363.33 692.746,2363.3C691.838,2363.27 691.081,2363.21 690.475,2363.15C690.657,2363.96 690.748,2364.96 690.748,2366.14L690.748,2383.43C690.748,2384.13 690.717,2384.94 690.687,2385.88C690.627,2386.82 690.536,2387.73 690.445,2388.61L692.504,2388.61L692.504,2364.9L697.953,2364.9C697.559,2366.33 697.075,2367.72 696.56,2369.08C696.015,2370.44 695.38,2371.84 694.683,2373.26C696.015,2374.23 697.075,2375.29 697.832,2376.41C698.589,2377.53 698.982,2378.62 698.982,2379.65C698.982,2380.16 698.922,2380.58 698.77,2380.95C698.619,2381.31 698.346,2381.61 697.983,2381.86C697.59,2382.1 697.105,2382.28 696.5,2382.37C695.864,2382.49 695.107,2382.52 694.169,2382.49C694.835,2383.16 695.168,2383.91 695.137,2384.79C696.258,2384.61 697.196,2384.37 697.923,2384.07C698.649,2383.79 699.224,2383.43 699.648,2383.01C700.042,2382.61 700.344,2382.13 700.496,2381.61C700.647,2381.1 700.738,2380.49 700.738,2379.83C700.738,2379.22 700.647,2378.62 700.435,2377.98ZM685.541,2384.73L685.541,2387.15L687.418,2387.15C687.387,2386.88 687.387,2386.55 687.357,2386.15C687.327,2385.76 687.327,2385.4 687.327,2385C687.297,2384.61 687.297,2384.25 687.297,2383.91C687.266,2383.58 687.266,2383.28 687.266,2383.07L687.266,2379.4C687.266,2378.53 687.266,2377.86 687.297,2377.35C687.327,2376.86 687.357,2376.47 687.387,2376.13C687.054,2376.16 686.661,2376.16 686.176,2376.19C685.692,2376.22 685.208,2376.22 684.693,2376.26C684.178,2376.28 683.694,2376.28 683.24,2376.28C682.756,2376.32 682.362,2376.32 682.059,2376.32C681.726,2376.32 681.302,2376.32 680.848,2376.28C680.394,2376.28 679.91,2376.28 679.395,2376.26C678.88,2376.26 678.396,2376.26 677.942,2376.22C677.458,2376.19 677.034,2376.19 676.64,2376.16C676.671,2376.44 676.701,2376.86 676.731,2377.44C676.761,2378.01 676.761,2378.65 676.761,2379.4L676.761,2384.34C676.731,2384.67 676.731,2385.03 676.701,2385.43C676.671,2385.82 676.671,2386.18 676.64,2386.58C676.61,2386.97 676.61,2387.3 676.58,2387.61L678.578,2387.61L678.578,2384.73L685.541,2384.73ZM678.578,2383.34L678.578,2377.74L685.541,2377.74L685.541,2383.34L678.578,2383.34ZM680.667,2372.17C680.061,2372.17 679.425,2372.17 678.759,2372.14C678.093,2372.14 677.458,2372.14 676.852,2372.11C676.247,2372.08 675.702,2372.05 675.217,2372.02C674.703,2371.99 674.339,2371.93 674.097,2371.89L674.097,2373.86C674.612,2373.77 675.52,2373.71 676.792,2373.65C678.033,2373.62 679.849,2373.59 682.18,2373.59C686.298,2373.59 688.901,2373.68 689.961,2373.86L689.961,2371.89C689.749,2371.93 689.446,2371.93 689.052,2371.96C688.659,2371.99 688.235,2372.02 687.751,2372.05C687.266,2372.08 686.752,2372.11 686.207,2372.14C685.662,2372.17 685.117,2372.17 684.572,2372.17C685.087,2371.23 685.51,2370.5 685.843,2369.96C686.176,2369.41 686.419,2368.99 686.631,2368.72C686.812,2368.44 686.964,2368.23 687.054,2368.14C687.145,2368.05 687.266,2367.99 687.357,2367.96C687.569,2367.87 687.69,2367.72 687.69,2367.57C687.66,2367.41 687.539,2367.32 687.327,2367.29C686.964,2367.2 686.661,2367.08 686.388,2366.93C686.116,2366.78 685.813,2366.6 685.48,2366.36C685.238,2367.23 684.935,2368.11 684.542,2368.99C684.148,2369.9 683.603,2370.96 682.937,2372.17L680.667,2372.17ZM681.06,2370.99C680.546,2370.14 680.061,2369.41 679.637,2368.78C679.213,2368.14 678.759,2367.51 678.275,2366.87L676.852,2367.84C677.155,2368.17 677.427,2368.51 677.67,2368.78C677.912,2369.08 678.154,2369.38 678.366,2369.69C678.578,2369.99 678.79,2370.29 679.002,2370.62C679.213,2370.96 679.425,2371.35 679.637,2371.8L681.06,2370.99ZM682.998,2363.66C682.877,2363.39 682.756,2363.15 682.634,2362.87C682.483,2362.6 682.332,2362.33 682.18,2362.06C682.029,2361.78 681.817,2361.45 681.575,2361.06L679.88,2362.06C680.091,2362.33 680.303,2362.6 680.455,2362.81C680.606,2363.03 680.757,2363.24 680.879,2363.45C681,2363.66 681.121,2363.84 681.242,2364.02C681.333,2364.21 681.454,2364.39 681.545,2364.6C680.031,2364.6 678.79,2364.57 677.791,2364.54C676.792,2364.51 675.853,2364.42 675.005,2364.33L675.005,2366.17C675.46,2366.14 675.914,2366.08 676.368,2366.05C676.822,2366.02 677.306,2366.02 677.851,2365.99C678.396,2365.99 679.032,2365.99 679.728,2365.96L684.421,2365.96C685.087,2365.99 685.692,2365.99 686.237,2365.99C686.782,2366.02 687.297,2366.02 687.751,2366.05C688.205,2366.08 688.659,2366.14 689.113,2366.17L689.113,2364.33C688.326,2364.42 687.508,2364.48 686.661,2364.51C685.783,2364.54 684.693,2364.57 683.391,2364.6C683.24,2364.24 683.089,2363.93 682.998,2363.66Z" style="fill:rgb(107,111,114);fill-rule:nonzero;"/>
    </g>
    <g transform="matrix(4.16667,0,0,4.16667,-2296.9,-9767.83)">
        <path d="M718.478,2367.32C717.903,2366.48 717.328,2365.69 716.692,2364.93C716.056,2364.18 715.39,2363.48 714.664,2362.78L713.301,2363.93C713.877,2364.45 714.482,2365.08 715.118,2365.84C715.723,2366.6 716.298,2367.48 716.874,2368.44L718.478,2367.32ZM730.83,2364.05C730.83,2363.9 730.709,2363.75 730.467,2363.66C730.134,2363.51 729.831,2363.33 729.558,2363.12C729.256,2362.9 728.923,2362.66 728.59,2362.36C728.135,2363.42 727.53,2364.36 726.803,2365.24C726.077,2366.11 725.229,2366.93 724.26,2367.69C724.866,2367.9 725.411,2368.26 725.865,2368.78C726.955,2367.48 727.863,2366.51 728.559,2365.81C729.256,2365.14 729.891,2364.69 730.406,2364.48C730.678,2364.39 730.83,2364.24 730.83,2364.05ZM727.984,2376.07L727.984,2379.92L716.087,2379.92L716.087,2376.07L727.984,2376.07ZM716.087,2374.83L716.087,2370.93L727.984,2370.93L727.984,2374.83L716.087,2374.83ZM721.021,2369.5C719.689,2369.47 718.448,2369.44 717.267,2369.41C716.087,2369.38 714.997,2369.32 714.028,2369.23C714.058,2369.5 714.058,2369.81 714.089,2370.2C714.119,2370.59 714.119,2371.02 714.149,2371.44C714.179,2371.87 714.179,2372.26 714.21,2372.65L714.21,2383.82C714.21,2384.64 714.21,2385.4 714.179,2386.09C714.149,2386.79 714.058,2387.49 713.967,2388.24L716.087,2388.24L716.087,2381.28L727.984,2381.28L727.984,2385.34C727.984,2385.76 727.712,2386.03 727.197,2386.15C726.682,2386.31 725.714,2386.24 724.351,2385.97C725.108,2386.64 725.441,2387.43 725.32,2388.33C726.259,2388.3 727.015,2388.24 727.621,2388.15C728.196,2388.06 728.68,2387.94 729.013,2387.79C729.346,2387.64 729.589,2387.46 729.71,2387.24C729.831,2387.03 729.891,2386.76 729.891,2386.46L729.891,2373.65C729.891,2372.93 729.922,2372.17 729.952,2371.38C729.982,2370.59 730.043,2369.87 730.134,2369.23C729.286,2369.32 728.257,2369.41 727.015,2369.44C725.774,2369.47 724.351,2369.5 722.777,2369.5L722.777,2363.21C722.777,2362.87 722.838,2362.54 722.959,2362.21C723.05,2361.88 723.201,2361.6 723.352,2361.45C723.534,2361.3 723.594,2361.15 723.564,2361.03C723.534,2360.94 723.383,2360.88 723.14,2360.88C722.807,2360.88 722.444,2360.88 722.111,2360.85C721.778,2360.82 721.324,2360.78 720.779,2360.72C720.87,2361.18 720.93,2361.72 720.961,2362.33C720.991,2362.97 721.021,2363.6 721.021,2364.3L721.021,2369.5ZM710.607,2376.8C709.79,2379.01 708.912,2380.98 707.943,2382.73C706.944,2384.49 705.945,2385.88 704.916,2386.91C705.188,2387 705.4,2387.09 705.612,2387.15C705.794,2387.24 705.975,2387.3 706.127,2387.4C706.278,2387.49 706.46,2387.61 706.611,2387.7C706.762,2387.82 706.914,2387.94 707.065,2388.09C708.185,2386 709.245,2384.1 710.183,2382.31C711.122,2380.52 711.909,2379.07 712.484,2377.92C711.909,2377.68 711.273,2377.31 710.607,2376.8ZM711.303,2372.56C710.547,2371.99 709.669,2371.38 708.67,2370.74C707.671,2370.11 706.611,2369.5 705.491,2368.9L704.552,2370.38C705.763,2371.02 706.793,2371.65 707.671,2372.26C708.548,2372.86 709.336,2373.56 710.062,2374.32L711.303,2372.56ZM712.484,2365.54C711.788,2364.96 711.001,2364.39 710.062,2363.75C709.124,2363.12 708.155,2362.54 707.126,2361.97L706.217,2363.45C707.156,2363.9 708.064,2364.48 708.972,2365.11C709.85,2365.75 710.607,2366.39 711.182,2367.02L712.484,2365.54Z" style="fill:rgb(107,111,114);fill-rule:nonzero;"/>
    </g>
    <g transform="matrix(4.16667,0,0,4.16667,-2296.9,-9767.83)">
        <path d="M741.91,2363.12C741.154,2363.15 740.366,2363.18 739.519,2363.18C738.792,2363.18 738.035,2363.18 737.279,2363.15C736.522,2363.12 735.765,2363.09 735.069,2363.06C735.099,2363.33 735.129,2363.6 735.159,2363.93C735.19,2364.27 735.19,2364.63 735.22,2364.96C735.25,2365.33 735.25,2365.69 735.28,2366.02L735.28,2384.31C735.25,2384.85 735.25,2385.37 735.22,2385.88C735.19,2386.4 735.159,2386.88 735.129,2387.34C735.099,2387.82 735.038,2388.33 734.978,2388.88L737.279,2388.88C737.188,2387.88 737.127,2386.91 737.097,2385.94C737.067,2385 737.067,2383.82 737.067,2382.46L737.067,2364.66L741.577,2364.66C741.365,2365.33 741.184,2365.96 741.002,2366.54C740.79,2367.11 740.578,2367.72 740.366,2368.29C740.154,2368.87 739.882,2369.47 739.61,2370.11C739.337,2370.74 739.004,2371.41 738.641,2372.17C739.943,2373.14 740.851,2374.11 741.335,2375.1C741.82,2376.1 742.062,2377.1 742.062,2378.13C742.062,2379.25 741.729,2380.04 741.032,2380.49C740.336,2380.95 739.216,2381.16 737.672,2381.16C737.945,2381.43 738.187,2381.8 738.399,2382.22C738.58,2382.67 738.671,2383.07 738.671,2383.43C740.488,2383.04 741.82,2382.46 742.667,2381.64C743.485,2380.86 743.908,2379.8 743.908,2378.47C743.908,2377.13 743.606,2375.89 743.03,2374.74C742.455,2373.59 741.608,2372.62 740.548,2371.8C741.244,2370.17 741.88,2368.66 742.425,2367.26C742.97,2365.9 743.485,2364.48 743.939,2363.03C743.303,2363.06 742.637,2363.09 741.91,2363.12ZM747.541,2374.11C747.541,2377.28 747.057,2379.92 746.118,2381.98C745.18,2384.07 743.727,2385.76 741.82,2387.12C742.183,2387.27 742.516,2387.49 742.849,2387.7C743.182,2387.91 743.454,2388.21 743.727,2388.55C745.755,2386.7 747.178,2384.61 748.026,2382.25C748.843,2379.92 749.297,2377.31 749.327,2374.44L756.351,2374.44L755.443,2383.7C755.412,2384.16 755.322,2384.52 755.2,2384.79C755.049,2385.07 754.807,2385.28 754.444,2385.43C754.08,2385.58 753.566,2385.64 752.869,2385.64C752.173,2385.64 751.235,2385.58 750.054,2385.49C750.387,2385.88 750.629,2386.28 750.781,2386.64C750.932,2387.03 751.023,2387.43 751.114,2387.85C752.294,2387.82 753.263,2387.76 754.02,2387.61C754.777,2387.49 755.412,2387.3 755.866,2387.03C756.321,2386.79 756.654,2386.46 756.866,2386.06C757.077,2385.67 757.199,2385.16 757.259,2384.58L758.409,2372.65C758.076,2372.71 757.653,2372.77 757.138,2372.8C756.623,2372.83 755.988,2372.86 755.231,2372.86L749.327,2372.86L749.327,2367.66L753.414,2367.66C754.595,2367.69 755.624,2367.69 756.563,2367.69C757.471,2367.72 758.288,2367.72 758.985,2367.75C759.681,2367.78 760.347,2367.84 760.922,2367.87L760.922,2365.96C760.347,2365.99 759.802,2366.02 759.227,2366.05C758.652,2366.08 758.016,2366.11 757.35,2366.11C756.684,2366.14 755.957,2366.14 755.2,2366.14C754.413,2366.17 753.535,2366.17 752.536,2366.17C752.143,2365.24 751.719,2364.33 751.265,2363.45C750.811,2362.57 750.387,2361.81 749.993,2361.18L748.116,2362.18C748.571,2362.75 748.994,2363.36 749.418,2364.02C749.812,2364.69 750.236,2365.42 750.629,2366.17C749.751,2366.17 748.994,2366.17 748.359,2366.14C747.723,2366.14 747.117,2366.14 746.572,2366.11C746.028,2366.11 745.513,2366.08 745.029,2366.05C744.544,2366.02 744.03,2365.99 743.485,2365.96L743.485,2367.87C744.302,2367.81 745.029,2367.75 745.634,2367.72C746.209,2367.69 746.845,2367.69 747.541,2367.66L747.541,2374.11Z" style="fill:rgb(107,111,114);fill-rule:nonzero;"/>
    </g>
    <g transform="matrix(4.16667,0,0,4.16667,-2296.9,-9767.83)">
        <path d="M780.993,2364.14L780.993,2367.99L776.331,2367.99L776.331,2364.14L780.993,2364.14ZM782.78,2367.99L782.78,2364.14L787.139,2364.14L787.139,2367.99L782.78,2367.99ZM774.575,2364.14L774.575,2367.99L769.913,2367.99L769.913,2364.14L774.575,2364.14ZM773.728,2382.67L773.728,2381.37C774.061,2381.22 774.424,2381.04 774.757,2380.89C775.09,2380.74 775.423,2380.58 775.756,2380.43L785.958,2380.43L785.958,2382.67L773.728,2382.67ZM785.958,2383.97L785.958,2386.31L773.728,2386.31L773.728,2383.97L785.958,2383.97ZM777.482,2375.53C774.727,2375.5 772.365,2375.47 770.398,2375.38C768.43,2375.32 766.644,2375.23 765.1,2375.14L765.1,2377.19C766.825,2377.07 768.823,2376.98 771.124,2376.89C773.395,2376.83 776.15,2376.8 779.359,2376.8C777.815,2377.65 776.271,2378.4 774.727,2379.07C774,2379.04 773.364,2378.98 772.85,2378.95C772.305,2378.92 771.881,2378.89 771.578,2378.86C771.609,2379.07 771.639,2379.31 771.669,2379.55C771.699,2379.8 771.699,2380.04 771.73,2380.25C770.428,2380.74 769.187,2381.16 767.945,2381.49C766.704,2381.86 765.463,2382.16 764.282,2382.37C764.706,2382.64 765.039,2382.98 765.281,2383.31C765.493,2383.64 765.675,2384.1 765.766,2384.64C766.795,2384.28 767.824,2383.88 768.823,2383.49C769.822,2383.1 770.791,2382.67 771.76,2382.25L771.76,2386.09C771.76,2386.67 771.76,2387.12 771.73,2387.52C771.699,2387.91 771.669,2388.43 771.609,2389L773.728,2389L773.728,2387.64L785.958,2387.64L785.958,2388.58L788.047,2388.58C787.926,2387.46 787.866,2386.46 787.866,2385.55L787.866,2381.19C787.866,2380.7 787.866,2380.28 787.896,2379.95C787.926,2379.62 787.956,2379.25 788.017,2378.86C787.684,2378.89 787.26,2378.95 786.745,2378.98C786.231,2379.01 785.595,2379.04 784.838,2379.07C784.051,2379.1 783.143,2379.1 782.083,2379.1C781.024,2379.13 779.782,2379.13 778.36,2379.13C779.116,2378.74 779.843,2378.37 780.539,2377.98C781.236,2377.59 781.902,2377.22 782.537,2376.83C784.626,2376.86 786.412,2376.89 787.956,2376.95C789.47,2377.01 790.893,2377.1 792.195,2377.19L792.195,2375.14C791.135,2375.23 789.985,2375.29 788.804,2375.35C787.623,2375.41 786.261,2375.47 784.747,2375.5C785.02,2375.29 785.323,2375.1 785.595,2374.92C785.867,2374.77 786.14,2374.59 786.412,2374.41C787.23,2373.86 787.896,2373.41 788.441,2373.05C788.955,2372.71 789.409,2372.44 789.742,2372.23C790.075,2372.02 790.348,2371.89 790.56,2371.8C790.772,2371.71 790.923,2371.68 791.044,2371.71C791.226,2371.74 791.377,2371.74 791.468,2371.65C791.559,2371.56 791.589,2371.47 791.589,2371.35C791.559,2371.26 791.529,2371.14 791.438,2370.99C791.347,2370.87 791.196,2370.78 791.014,2370.68C790.742,2370.59 790.53,2370.44 790.318,2370.23C790.106,2370.02 789.864,2369.75 789.652,2369.38C789.198,2369.99 788.683,2370.56 788.138,2371.08C787.563,2371.62 786.806,2372.23 785.867,2372.89L785.867,2371.47C785.413,2371.53 784.959,2371.59 784.505,2371.62C784.051,2371.65 783.567,2371.68 783.082,2371.71C782.568,2371.74 782.053,2371.74 781.478,2371.77C780.903,2371.8 780.237,2371.8 779.51,2371.8L779.51,2369.35C781.387,2369.35 783.113,2369.35 784.657,2369.38C786.2,2369.41 787.714,2369.5 789.258,2369.6C789.198,2369.2 789.167,2368.84 789.137,2368.53C789.107,2368.26 789.076,2367.99 789.076,2367.72C789.046,2367.45 789.046,2367.2 789.046,2366.93C789.016,2366.66 789.016,2366.36 789.016,2366.02C789.016,2365.69 789.016,2365.39 789.046,2365.11C789.046,2364.84 789.046,2364.54 789.076,2364.27C789.107,2363.99 789.137,2363.72 789.167,2363.42C789.198,2363.15 789.228,2362.81 789.288,2362.48C787.623,2362.57 785.928,2362.66 784.263,2362.69C782.568,2362.72 780.66,2362.75 778.572,2362.75C776.543,2362.75 774.666,2362.72 772.941,2362.69C771.215,2362.66 769.55,2362.57 767.885,2362.48C767.915,2362.72 767.976,2362.93 768.006,2363.15C768.036,2363.36 768.036,2363.6 768.067,2363.84C768.067,2364.09 768.067,2364.36 768.097,2364.66L768.097,2365.72C768.097,2366.48 768.097,2367.17 768.067,2367.75C768.036,2368.35 767.976,2368.96 767.885,2369.6C769.399,2369.5 770.912,2369.44 772.456,2369.41C773.97,2369.38 775.635,2369.35 777.482,2369.35L777.482,2371.8C776.452,2371.8 775.574,2371.8 774.878,2371.77C774.152,2371.74 773.516,2371.71 772.941,2371.68C772.365,2371.65 771.881,2371.62 771.427,2371.59C770.973,2371.56 770.519,2371.53 770.034,2371.47L770.034,2373.5C770.519,2373.44 770.973,2373.38 771.427,2373.35C771.881,2373.32 772.365,2373.29 772.941,2373.26C773.516,2373.23 774.152,2373.23 774.878,2373.2C775.574,2373.17 776.452,2373.17 777.482,2373.17L777.482,2375.53ZM783.536,2374.41C782.961,2374.74 782.325,2375.14 781.629,2375.53L779.51,2375.53L779.51,2373.17C780.206,2373.17 780.812,2373.17 781.357,2373.2C781.871,2373.23 782.356,2373.23 782.78,2373.23C783.203,2373.26 783.597,2373.26 783.96,2373.29C784.324,2373.32 784.687,2373.38 785.08,2373.41C784.626,2373.74 784.112,2374.08 783.536,2374.41Z" style="fill:rgb(107,111,114);fill-rule:nonzero;"/>
    </g>
</svg>
