<?xml version="1.0" encoding="UTF-8" standalone="no"?>
<!DOCTYPE svg PUBLIC "-//W3C//DTD SVG 1.1//EN" "http://www.w3.org/Graphics/SVG/1.1/DTD/svg11.dtd">
<svg width="100%" height="100%" viewBox="0 0 432 531" version="1.1" xmlns="http://www.w3.org/2000/svg" xmlns:xlink="http://www.w3.org/1999/xlink" xml:space="preserve" xmlns:serif="http://www.serif.com/" style="fill-rule:evenodd;clip-rule:evenodd;">
    <style>
    .county {
        cursor: pointer;
    }
    </style>
    <g class="county KEL" id="KEL">
        <path d="M401.329,35.371l0.183,1.704l-1.263,-0.091l0.285,1.749l-1.059,0.318l-2.404,-1.204l-0.855,1.159l-1.507,0.636l0.488,1.181l-0.061,2.52l2.322,2.225l-1.874,2.021l-2.301,0.613l-1.895,0.023l-2.79,-2.361l-1.813,0.09l-1.528,-0.658l-1.996,-1.726l-2.567,-1.635l-1.324,-3.088l-0.265,-1.749l-2.179,-1.5l-0.265,-0.772l1.772,-0.931l1.446,0.091l1.161,-1.091l2.71,-0.545l1.914,-1.636l0.876,-0.068l1.589,-1.364l0.061,-0.045l0.041,-0.091l-0.346,1.613l2.301,0.137l3.463,1.386l2.384,-1.114l1.283,1.159l2.566,1.386l1.936,-0.341l-0.489,1.999Z" style="fill-rule:nonzero;stroke:gray;stroke-width:1px;"/>
    </g>
    <g class="county TPE" id="TPE">
        <path d="M368.859,25.964l1.813,1.296l-0.081,1.727l-0.876,1.636l2.057,1.431l0.55,2.181l1.161,1.136l-1.181,3.521l0.265,0.591l2.505,0.863l1.1,1.067l0.733,1.612l-0.59,0.931l-0.367,3.111l-0.754,1.498l1.202,1.975l3.524,1.566l2.2,-0.34l-0.265,1.021l-2.933,-0.204l-2.75,1.112l-1.792,-0.386l-1.813,0.772l-0.265,1.18l0.631,4.651l2.669,0.976l-1.508,1.134l-1.588,0.431l-2.486,-0.907l-2.525,0.249l-1.141,-2.473l-2.078,-1.111l-1.059,-1.498l0.468,-0.908l-2.037,-2.45l-1.425,-0.296l-1.06,1.271l-1.242,0.568l-1.243,-3.972l0.713,-1.135l1.752,-0.522l0.672,-1.181l0.122,-2.52l-0.611,-1.998l-1.894,-2.134l-1.12,-0.613l-2.058,-0.137l-1.263,-0.84l1.161,-3.77l5.459,-6.43l2.139,0.591l0.245,-1.5l2.933,-1.5l1.711,-3.023l1.08,-0.136l1.14,1.886Z" style="fill-rule:nonzero;stroke:gray;stroke-width:1px;"/>
    </g>
    <g class="county NTPE" id="NTPE">
        <path d="M388.231,29.146l-0.041,0.091l-0.061,0.045l-1.589,1.364l-0.876,0.068l-1.914,1.636l-2.71,0.545l-1.161,1.091l-1.446,-0.091l-1.772,0.931l0.265,0.772l2.179,1.5l0.265,1.749l1.324,3.088l2.567,1.635l1.996,1.726l1.528,0.658l1.813,-0.09l2.79,2.361l1.895,-0.023l2.301,-0.613l1.874,-2.021l-2.322,-2.225l0.061,-2.52l-0.488,-1.181l1.507,-0.636l0.855,-1.159l2.404,1.204l1.059,-0.318l-0.285,-1.749l1.263,0.091l-0.183,-1.704l3.483,1.363l1.874,-0.227l3.239,0.863l1.731,-0.295l1.772,0.818l2.017,-0.704l2.322,0.477l0.754,2.021l-0.978,0.863l-0.733,1.976l0.142,1.794l1.406,0.931l0.876,1.385l-0.387,3.405l0.774,1.339l1.751,1.725l3.708,-0.84l3.564,1.067l1.039,1.339l-0.203,1.452l-1.182,0.114l-1.772,1.588l-2.505,1.134l-0.408,-0.68l-2.668,-0.068l-0.469,0.522l-4.277,1.52l-0.999,0.045l-0.794,1.134l-3.565,0.976l-1.385,-0.431l-2.057,0.499l-1.08,2.155l0.937,1.224l0.856,2.246l-2.832,2.902l-2.974,0.204l-2.505,0.544l-1.528,1.633l0.224,2.335l-1.955,1.292l-1.141,1.405l-2.668,0.657l-1.304,-0.521l-2.567,2.176l-3.524,2.379l0.041,1.383l-1.752,0.475l-1.1,-0.43l-1.201,0.906l-1.773,-0.43l-0.468,0.702l-2.261,0.204l-0.367,1.994l-2.2,0.203l-0.55,0.703l-1.731,0.272l0.591,2.287l-0.978,1.812l-0.082,1.359l0.754,1.97l-0.163,1.495l-0.896,1.381l-1.467,0.837l-2.913,0.566l-1.813,0.838l-0.774,0.928l-0.224,1.766l-1.731,0.769l-1.63,-0.181l-2.709,1.72l-1.772,-0.09l-0.978,-2.445l0.163,-0.973l-3.34,-1.471l-2.078,-4.189l-1.67,-4.642l3.646,-3.511l-1.569,-1.45l-0.265,-2.605l-0.896,-0.408l-2.016,-3.172l-1.793,-1.247l-1.263,-0.045l-2.078,1.382l-2.933,-0.702l-0.57,-2.901l-1.08,-1.496l1.182,-0.794l-1.223,-1.042l-0.488,-1.927l-1.386,-0.136l-1.527,-0.998l0.672,-1.428l-1.202,-1.111l2.343,-2.041l-1.548,-0.25l-1.039,-1.111l1.283,-0.794l0.591,-2.609l-0.285,-2.699l2.077,-0.431l3.85,0.59l1.752,-1.044l0.265,-1.815l1.466,0.295l1.202,-0.863l-0.815,-2.609l2.058,-0.409l-1.935,-1.725l0.264,-2.269l-1.65,-2.566l-1.629,-0.704l-3.035,0.137l-0.835,-2.475l-1.426,-0.364l-1.956,-1.385l-3.055,-0.658l-0.632,-1.181l-2.159,-0.772l0.082,-1.272l1.1,-0.137l1.303,-1.022l2.73,0.273l4.644,-1.249l1.548,-0.977l3.524,-1.522l-0.244,-0.659l0.509,-2.454l1.487,1.409l2.302,-2.863l-2.017,-0.887l0.082,-1.022l1.935,-0.273l0.02,-1.205l1.67,-2.546l0.693,-0.204l2.342,-5.502l1.386,0.114l1.263,-0.614l1.303,-2.297l3.972,-1.933l2.322,-0.387l1.019,-0.614l0.061,-1.092l2.322,0.819l2.139,-0.25l1.67,-0.865l2.71,1.138l1.527,1.569l2.119,1.16l1.527,2.138l-0.04,3.001l1.242,1.501l1.202,-0.387l-0.102,1.796l0.734,1.296l2.322,1.727l2.811,-0.977l0.203,1.023l-1.14,1.523l0.529,1.409l2.791,0.977Zm-19.372,-3.182l-1.14,-1.886l-1.08,0.136l-1.711,3.023l-2.933,1.5l-0.245,1.5l-2.139,-0.591l-5.459,6.43l-1.161,3.77l1.263,0.84l2.058,0.137l1.12,0.613l1.894,2.134l0.611,1.998l-0.122,2.52l-0.672,1.181l-1.752,0.522l-0.713,1.135l1.243,3.972l1.242,-0.568l1.06,-1.271l1.425,0.296l2.037,2.45l-0.468,0.908l1.059,1.498l2.078,1.111l1.141,2.473l2.525,-0.249l2.486,0.907l1.588,-0.431l1.508,-1.134l-2.669,-0.976l-0.631,-4.651l0.265,-1.18l1.813,-0.772l1.792,0.386l2.75,-1.112l2.933,0.204l0.265,-1.021l-2.2,0.34l-3.524,-1.566l-1.202,-1.975l0.754,-1.498l0.367,-3.111l0.59,-0.931l-0.733,-1.612l-1.1,-1.067l-2.505,-0.863l-0.265,-0.591l1.181,-3.521l-1.161,-1.136l-0.55,-2.181l-2.057,-1.431l0.876,-1.636l0.081,-1.727l-1.813,-1.296Z" style="fill-rule:nonzero;stroke:gray;stroke-width:1px;"/>
    </g>
    <g class="county TYN" id="TYN">
        <path d="M328.711,38.211l-0.082,1.272l2.159,0.772l0.632,1.181l3.055,0.658l1.956,1.385l1.426,0.364l0.835,2.475l3.035,-0.137l1.629,0.704l1.65,2.566l-0.264,2.269l1.935,1.725l-2.058,0.409l0.815,2.609l-1.202,0.863l-1.466,-0.295l-0.265,1.815l-1.752,1.044l-3.85,-0.59l-2.077,0.431l0.285,2.699l-0.591,2.609l-1.283,0.794l1.039,1.111l1.548,0.25l-2.343,2.041l1.202,1.111l-0.672,1.428l1.527,0.998l1.386,0.136l0.488,1.927l1.223,1.042l-1.182,0.794l1.08,1.496l0.57,2.901l2.933,0.702l2.078,-1.382l1.263,0.045l1.793,1.247l2.016,3.172l0.896,0.408l0.265,2.605l1.569,1.45l-3.646,3.511l1.67,4.642l2.078,4.189l3.34,1.471l-0.163,0.973l0.978,2.445l-2.872,0.09l-1.609,2.784l0.468,0.611l-2.302,4.095l-0.977,2.828l-2.037,0.407l-1.426,1.787l-0.509,0.226l-1.121,0.588l-2.587,-1.108l-1.059,-1.177l-0.896,-2.465l0.611,-0.86l0.041,-0.113l0.264,-0.95l-0.631,-0.588l-0.346,0.022l-0.856,-1.719l0.02,-3.395l-1.751,-0.543l-0.53,-1.991l-0.937,-1.223l-1.568,-1.018l-2.139,0.747l0.02,-1.856l0.021,-0.408l0.02,-0.091l0.611,-1.765l-1.304,-2.174l0.448,-1.313l0.408,-2.242l-0.571,-0.974l-1.792,-0.793l-2.241,-1.11l-0.122,-0.385l-1.467,-0.543l0.102,-1.133l-0.285,-0.612l-1.609,-0.634l-0.876,-1.314l-1.1,0.317l-1.65,0.34l-0.591,-1.654l-1.038,0.453l-0.184,0.318l-0.652,-0.295l-0.977,-1.291l-2.893,-2.04l-0.428,-0.43l-0.061,-0.046l-1.69,-0.498l-1.162,-0.997l0.428,-0.93l0.571,-1.246l0.163,-0.453l-0.489,-1.995l-0.021,-0.023l-0.04,-0.023l0.224,-0.476l-0.163,-0.204l-1.141,-0.408l-1.222,-0.158l-0.591,0.612l-0.428,-0.227l-0.061,-0l-2.098,-0.317l-0.387,-0.114l-0.285,-0.181l-0.265,-0.93l-0.02,-0.748l-0.163,-0.476l-2.669,0.431l-0.509,-0.295l-0,-0.022l-0.367,-0.25l-0.916,-0.023l-2.669,-1.02l0.347,-2.041l-0.693,-2.721l-1.752,-1.202l-0.163,0.023l-0.183,0.113l-0.244,-0.386l-0.184,-0.09l-1.365,0.453l-0.733,0.318l-0.754,-0.068l-0.448,-0.136l-0.937,-0.545l-1.303,0.862l-0.998,0.771l-0.367,-0.453l-0.204,-1.497l1.671,-1.588l1.751,-3.063l-0.081,-1.61l0.815,-0.999l0.529,-1.974l1.202,-1.906l3.259,-3.541l4.828,-1.998l0.468,-0.999l4.889,-2.134l4.502,-1.181l2.444,-1.43l1.345,-0.318l3.87,-2.181l6.661,-2.112l3.3,0.909Z" style="fill-rule:nonzero;stroke:gray;stroke-width:1px;"/>
    </g>
    <g class="county HSZCity" id="HSZCity">
        <path d="M280.129,100.593l-0.774,-0.612l-1.406,-0.045l-0.835,-0.068l-0.122,-1.902l-0.998,-1.698l-1.834,1.223l-0.02,-0l-0.061,-0.045l-1.548,-0.046l-0.917,-0.77l2.608,-3.532l-0.143,-4.712l1.487,-4.939l1.813,-2.628l0.142,-1.179l1.182,-0.929l2.118,0.748l0.611,1.36l1.467,1.042l6.294,1.881l2.913,3.149l0.509,3.33l0.673,0.544l0.387,2.265l-1.63,0.792l-1.018,-2.197l-2.445,-1.404l-1.548,0.612l0.469,1.155l-1.223,0.793l-1.344,-0.272l-0.346,1.336l-1.895,1.993l-1.405,-0.045l-1.161,4.8Z" style="fill-rule:nonzero;stroke:gray;stroke-width:1px;"/>
    </g>
    <g class="county HSZCounty" id="HSZCounty">
        <path d="M294.551,64.721l0.244,0.386l0.183,-0.113l0.163,-0.023l1.752,1.202l0.693,2.721l-0.347,2.041l2.669,1.02l0.916,0.023l0.367,0.25l-0,0.022l0.509,0.295l2.669,-0.431l0.163,0.476l0.02,0.748l0.265,0.93l0.285,0.181l0.387,0.114l2.098,0.317l0.061,-0l0.428,0.227l0.591,-0.612l1.222,0.158l1.141,0.408l0.163,0.204l-0.224,0.476l0.04,0.023l0.021,0.023l0.489,1.995l-0.163,0.453l-0.571,1.246l-0.428,0.93l1.162,0.997l1.69,0.498l0.061,0.046l0.428,0.43l2.893,2.04l0.977,1.291l0.652,0.295l0.184,-0.318l1.038,-0.453l0.591,1.654l1.65,-0.34l1.1,-0.317l0.876,1.314l1.609,0.634l0.285,0.612l-0.102,1.133l1.467,0.543l0.122,0.385l2.241,1.11l1.792,0.793l0.571,0.974l-0.408,2.242l-0.448,1.313l1.304,2.174l-0.611,1.765l-0.02,0.091l-0.021,0.408l-0.02,1.856l2.139,-0.747l1.568,1.018l0.937,1.223l0.53,1.991l1.751,0.543l-0.02,3.395l0.856,1.719l0.346,-0.022l0.631,0.588l-0.264,0.95l-0.041,0.113l-0.611,0.86l0.896,2.465l1.059,1.177l2.587,1.108l1.121,-0.588l0.957,0.791l0.061,0.091l0.387,0.588l-0,0.022l0.387,1.154l-1.528,1.492l-0.244,0.339l-0.672,0.86l0.57,1.13l-0.285,1.289l0.672,1.627l-1.283,0.746l-0.041,0.023l-0.285,0.339l-0.632,1.198l-0.774,0.678l-0.366,-0l-0.937,1.831l-1.793,1.695l-0.591,0.158l-1.466,0.497l-0.978,2.328l-0.896,0.655l-1.222,2.101l-0.449,1.197l-1.67,1.356l-1.65,0.112l-0.081,0.113l-1.406,0.136l-0.896,0.158l-2.383,-0l-0.123,-1.762l0.388,-0.497l-0.489,-2.937l-1.915,-1.197l-1.365,-2.531l-0.183,-0l-1.508,-1.175l-0.203,-0.226l0.142,-1.673l-1.12,-1.13l-3.809,1.469l-1.243,-0.361l-1.12,0.632l-2.872,-0.542l-3.891,-0.249l-3.32,1.899l-1.263,-0.407l-2.342,-0.068l0.04,-0.361l-0.713,-3.255l1.447,-0.791l0.061,-0.905l0.366,-1.062l-0.998,-1.311l-1.772,-1.086l-0.265,-0.633l0.652,0.407l0.672,-0.656l0.611,-1.492l0.061,-0.204l0.55,-1.334l0.795,-1.131l-0.082,-1.221l-0.937,-1.131l0.102,-0.565l-0.142,-0.566l-0.021,-0.022l-1.161,-0.747l-0.489,-0.543l-1.629,0.453l-0.326,-0.204l-0.896,-1.244l-3.85,-2.104l-0.673,-0.476l-0.04,-0l-0.143,-0.543l0.021,-0.633l0.203,-0.272l0.021,-0.068l0.02,-0.113l-0.387,-0.203l-1.059,0.158l-1.61,-1.267l-0.468,-0.408l-0.387,-0.678l-0.794,-0.544l-0.102,-1.448l-1.019,-0.204l-0.366,-1.041l1.038,-1.109l-0.142,-0.634l0.122,-1.426l-1.772,0.385l-1.12,0.475l-1.569,-0.181l-0.896,-0.792l1.161,-4.8l1.405,0.045l1.895,-1.993l0.346,-1.336l1.344,0.272l1.223,-0.793l-0.469,-1.155l1.548,-0.612l2.445,1.404l1.018,2.197l1.63,-0.792l-0.387,-2.265l-0.673,-0.544l-0.509,-3.33l-2.913,-3.149l-6.294,-1.881l-1.467,-1.042l-0.611,-1.36l-2.118,-0.748l1.955,-1.904l1.019,-1.768l0.855,-2.562l0.876,-1.156l1.508,-3.946l1.711,-1.769l0.835,0.227l0.367,0.453l0.998,-0.771l1.303,-0.862l0.937,0.545l0.448,0.136l0.754,0.068l0.733,-0.318l1.365,-0.453l0.184,0.09Z" style="fill-rule:nonzero;stroke:gray;stroke-width:1px;"/>
    </g>
    <g class="county ILA" id="ILA">
        <path d="M424.021,58.959l-4.156,1.43l-1.487,0.816l-1.304,2.564l-3.972,2.585l-0.346,2.495l-3.463,3.764l-1.283,0.657l-1.202,2.154l-1.691,3.967l-0.875,3.308l-0.652,3.943l-0.245,3.874l0.428,4.665l0.672,2.265l1.508,3.441l0.224,5.772l0.468,2.58l1.467,4.344l1.955,2.782l2.058,0.656l0.733,0.883l-2.261,3.641l0.53,6.376l-0.713,1.062l-3.728,1.153l-0.509,2.102l0.285,1.289l1.426,0.519l0.04,1.515l-2.424,2.598l-1.812,0.994l0.203,0.859l-1.548,2.214l-1.242,1.084l-1.508,3.998l-0.57,5.487l-1.874,4.402l-0.367,1.716l0.428,2.64l-2.078,0.158l-2.016,-1.309l-4.359,-0.632l-2.261,-1.128l-2.974,-0.474l-3.545,-3.431l-1.466,-0l-1.284,-1.648l-1.283,0.609l-0,1.445l0.794,1.174l0.082,1.67l-1.589,-0.316l-1.772,1.783l0.102,1.648l-2.384,0.338l-2.505,-0.293l-1.324,-0.722l-0.57,-1.309l-4.319,-1.716l-3.768,0.497l-1.772,-1.422l-2.852,-1.084l-1.813,-1.399l-1.283,-1.31l-0.713,-1.49l-1.161,-0.023l-3.015,0.836l-1.019,-0.294l-2.709,1.942l-1.079,-0.226l-1.182,-3.183l-1.344,-0.61l-2.343,0.474l-1.894,-2.597l0.346,-0.926l0.082,-3.207l-1.447,-1.175l0.449,-1.197l1.222,-2.101l0.896,-0.655l0.978,-2.328l1.466,-0.497l0.591,-0.158l1.793,-1.695l0.937,-1.831l0.366,-0l0.774,-0.678l0.632,-1.198l0.285,-0.339l0.041,-0.023l1.283,-0.746l-0.672,-1.627l0.285,-1.289l-0.57,-1.13l0.672,-0.86l0.244,-0.339l1.528,-1.492l-0.387,-1.154l-0,-0.022l-0.387,-0.588l-0.061,-0.091l-0.448,-1.017l1.426,-1.787l2.037,-0.407l0.977,-2.828l2.302,-4.095l-0.468,-0.611l1.609,-2.784l2.872,-0.09l1.772,0.09l2.709,-1.72l1.63,0.181l1.731,-0.769l0.224,-1.766l0.774,-0.928l1.813,-0.838l2.913,-0.566l1.467,-0.837l0.896,-1.381l0.163,-1.495l-0.754,-1.97l0.082,-1.359l0.978,-1.812l-0.591,-2.287l1.731,-0.272l0.55,-0.703l2.2,-0.203l0.367,-1.994l2.261,-0.204l0.468,-0.702l1.773,0.43l1.201,-0.906l1.1,0.43l1.752,-0.475l-0.041,-1.383l3.524,-2.379l2.567,-2.176l1.304,0.521l2.668,-0.657l1.141,-1.405l1.955,-1.292l-0.224,-2.335l1.528,-1.633l2.505,-0.544l2.974,-0.204l2.832,-2.902l-0.856,-2.246l-0.937,-1.224l1.08,-2.155l2.057,-0.499l1.385,0.431l3.565,-0.976l0.794,-1.134l0.999,-0.045l4.277,-1.52l0.469,-0.522l2.668,0.068l0.408,0.68Z" style="fill-rule:nonzero;stroke:gray;stroke-width:1px;"/>
    </g>
    <g class="county MIA" id="MIA">
        <path d="M290.538,111.139l0.04,-0l0.673,0.476l3.85,2.104l0.896,1.244l0.326,0.204l1.629,-0.453l0.489,0.543l1.161,0.747l0.021,0.022l0.142,0.566l-0.102,0.565l0.937,1.131l0.082,1.221l-0.795,1.131l-0.55,1.334l-0.061,0.204l-0.611,1.492l-0.672,0.656l-0.652,-0.407l0.265,0.633l1.772,1.086l0.998,1.311l-0.366,1.062l-0.061,0.905l-1.447,0.791l0.713,3.255l-0.04,0.361l2.342,0.068l1.263,0.407l3.32,-1.899l3.891,0.249l2.872,0.542l1.12,-0.632l1.243,0.361l3.809,-1.469l1.12,1.13l-0.142,1.673l0.203,0.226l1.508,1.175l0.183,-0l1.365,2.531l1.915,1.197l0.489,2.937l-0.388,0.497l-0,0.429l-0.183,1.988l-1.915,0.768l-0.04,2.191l-1.243,1.287l-0.468,2.1l-2.506,0.226l-0.387,-2.078l-1.874,-0.135l-0.978,2.303l-0.957,0.09l-1.202,1.107l-0.937,2.009l-2.607,0.406l-1.161,-0.248l-2.648,3.567l-0.061,0.88l-1.813,-0.068l-0.897,0.993l-2.179,1.061l-0.693,-0.97l-1.14,0.248l-2.547,1.85l-0.427,1.738l-0.978,0.564l-1.385,-0.293l-0.815,-1.151l-1.589,-1.016l-0.489,-1.354l-1.365,-1.805l-1.914,0.338l-1.263,-0.948l-1.345,0.362l-1.711,-0.226l-0.468,-0.655l-1.996,0.023l-0.958,-0.564l-2.587,1.083l0.754,4.942l-1.507,1.467l-0.999,0.271l-4.135,-0.406l-2.464,0.88l-3.3,-0.203l-2.241,-2.595l-1.691,-1.309l-3.014,-0.384l-3.545,-1.58l-3.85,-3.476l-3.299,-0.993l-2.139,-1.603l-0.876,-1.625l-1.161,-0.791l-1.915,-2.8l-2.078,-1.106l-1.283,-2.801l-1.528,-1.559l-0.957,-0.361l1.324,-1.107l3.789,-4.564l2.689,-5.718l0.977,-1.04l1.222,-4.227l1.08,-1.944l1.202,-4.523l0.835,-1.516l1.976,-1.538l1.161,-1.538l1.059,-0.113l1.426,-1.516l0.224,-1.539l2.628,-2.964l1.69,-0.95l4.828,-0.86l4.604,-4.595l0.733,-2.943l1.833,-2.559l0.917,0.77l1.548,0.046l0.061,0.045l0.02,-0l1.834,-1.223l0.998,1.698l0.122,1.902l0.835,0.068l1.406,0.045l1.67,1.404l1.569,0.181l1.12,-0.475l1.772,-0.385l-0.122,1.426l0.142,0.634l-1.038,1.109l0.366,1.041l1.019,0.204l0.102,1.448l0.794,0.544l0.387,0.678l0.468,0.408l1.61,1.267l1.059,-0.158l0.387,0.203l-0.02,0.113l-0.021,0.068l-0.203,0.272l-0.021,0.633l0.143,0.543Z" style="fill-rule:nonzero;stroke:gray;stroke-width:1px;"/>
    </g>
    <g class="county TXG" id="TXG">
        <path d="M352.258,153.992l-1.467,0.925l-0.835,1.738l-0.428,2.709l0.347,1.083l-1.65,2.189l-2.485,-0l-0.367,1.873l-3.117,2.527l0.734,2.347l-0.082,1.421l-2.505,0.406l-0.896,1.285l-1.141,-0l-0.082,1.511l-1.242,1.602l-2.608,-1.444l-2.892,-0.112l-2.505,0.699l-2.343,-1.353l-0.489,-1.173l-1.446,0.361l-1.528,3.18l-0.855,0.428l-2.567,-1.466l-1.609,1.173l-1.589,-0.226l-2.241,1.646l-1.813,-1.984l-0.916,1.533l-1.854,0.384l-0.917,2.007l-0.835,0.541l-4.135,-0.158l-1.303,0.789l-0.693,1.42l-5.418,4.283l-0.652,-0.766l-2.75,0.09l-1.772,0.496l-1.182,1.69l-0.509,1.691l-1.609,1.983l-2.159,0.608l-2.119,-0.496l-1.568,-1.172l-2.546,2.389l-1.671,0.721l-3.483,-1.375l-0.468,2.794l-1.406,-0.36l-1.243,-2.479l-2.138,-0.09l-0.469,-1.104l-1.263,-0l-1.202,1.172l-1.079,3.425l0.102,3.514l-1.997,0.27l-1.12,0.901l-0.489,1.734l-2.566,4.144l-1.243,0.945l-0.774,1.554l-1.793,0.495l-1.629,1.103l-1.996,-1.576l-1.752,-0.112l-1.793,0.675l-1.609,-0.293l-2.261,-1.058l-3.218,-2.544l-1.508,0.743l-1.222,-0.788l-1.039,0.225l-0.713,-3.626l0.245,-2.387l-0.795,-0.631l-0.631,-1.734l-0.387,-2.794l-5.541,-0.878l-3.198,-0.834l-1.303,-1.555l-1.121,-0.405l-1.222,-1.961l0.306,-1.397l-2.465,-5.906l-0.53,-0.609l-6.681,-2.457l1.711,-1.105l1.059,-1.511l1.976,-4.736l1.08,-1.331l1.752,-4.332l0.835,-0.97l0.977,-2.641l1.202,-0.722l1.182,-2.302l0.692,0.09l1.874,-2.279l0.306,-1.49l3.972,-6.097l1.263,-1.309l3.198,-4.992l0.957,0.361l1.528,1.559l1.283,2.801l2.078,1.106l1.915,2.8l1.161,0.791l0.876,1.625l2.139,1.603l3.299,0.993l3.85,3.476l3.545,1.58l3.014,0.384l1.691,1.309l2.241,2.595l3.3,0.203l2.464,-0.88l4.135,0.406l0.999,-0.271l1.507,-1.467l-0.754,-4.942l2.587,-1.083l0.958,0.564l1.996,-0.023l0.468,0.655l1.711,0.226l1.345,-0.362l1.263,0.948l1.914,-0.338l1.365,1.805l0.489,1.354l1.589,1.016l0.815,1.151l1.385,0.293l0.978,-0.564l0.427,-1.738l2.547,-1.85l1.14,-0.248l0.693,0.97l2.179,-1.061l0.897,-0.993l1.813,0.068l0.061,-0.88l2.648,-3.567l1.161,0.248l2.607,-0.406l0.937,-2.009l1.202,-1.107l0.957,-0.09l0.978,-2.303l1.874,0.135l0.387,2.078l2.506,-0.226l0.468,-2.1l1.243,-1.287l0.04,-2.191l1.915,-0.768l0.183,-1.988l0.123,1.333l2.383,-0l0.896,-0.158l1.406,-0.136l0.081,-0.113l1.65,-0.112l1.67,-1.356l1.447,1.175l-0.082,3.207l-0.346,0.926l1.894,2.597l2.343,-0.474l1.344,0.61l1.182,3.183l1.079,0.226l2.709,-1.942l1.019,0.294l3.015,-0.836l1.161,0.023l0.713,1.49l1.283,1.31Z" style="fill-rule:nonzero;stroke:gray;stroke-width:1px;"/>
    </g>
    <g class="county CHW" id="CHW">
        <path d="M213.255,178.111l6.681,2.457l0.53,0.609l2.465,5.906l-0.306,1.397l1.222,1.961l1.121,0.405l1.303,1.555l3.198,0.834l5.541,0.878l0.387,2.794l0.631,1.734l0.795,0.631l-0.245,2.387l0.713,3.626l1.039,-0.225l1.222,0.788l1.508,-0.743l3.218,2.544l-0.855,1.261l-0.897,-0.293l-3.442,-0.067l-0.55,2.206l1.752,1.351l-0.449,3.286l-1.425,1.642l-1.08,0.428l0.896,1.71l-0.774,1.418l1.039,0.72l-0.774,2.182l0.469,1.8l-0.775,1.394l-1.324,3.644l0.958,1.236l-1.12,2.429l1.059,0.27l1.629,1.663l0.265,1.327l1.487,1.146l2.363,-0.584l1.568,0.045l0.021,1.573l-1.732,1.888l-3.666,1.147l-3.544,-0.809l-3.117,0.044l-5.704,-1.528l-3.157,0.292l-2.526,-0.135l-3.89,-0.989l-4.359,-1.641l-2.628,-1.955l-3.198,0.562l-5.582,-0.315l-1.425,0.809l-7.252,0.45l-7.415,-2.136l-1.446,-0.967l-2.057,-2.113l-1.345,-1.799l0.917,-1.777l1.181,-1.125l1.65,-0.494l1.487,-1.665l-0.224,-1.305l0.673,-1.799l1.14,-1.665l1.447,-0.653l0.101,-2.07l0.53,-1.125l3.198,-2.521l0.244,-2.273l1.08,-1.846l2.465,-2.251l1.018,-3.918l0.102,-3.153l1.12,-1.712l1.263,-0.45l0.591,-0.991l2.893,-1.059l-0.326,-1.397l2.098,-3.154l0.611,-1.893l1.915,-4.237l0.163,-1.826l2.322,-2.637l1.568,-0.339l1.752,-2.795Z" style="fill-rule:nonzero;stroke:gray;stroke-width:1px;"/>
    </g>
    <g class="county NAT" id="NAT">
        <path d="M337.042,175.608l0.672,1.668l0.183,1.985l-3.279,0.541l-1.345,1.623l-1.446,0.834l-2.465,0.361l-0.04,3.133l-0.897,3.268l2.017,0.541l2.811,2.433l1.752,0.316l-0.448,1.915l-0.856,0.991l0.55,1.6l-5.561,4.685l0.347,2.229l-1.284,2.32l-0.998,2.791l-1.304,2.139l0.673,2.589l1.161,-0l0.652,1.463l-0.367,0.81l-0.448,3.398l0.631,2.295l-0.224,2.384l-1.202,0.045l-0.122,2.452l0.428,1.147l-2.159,2.429l-0.571,2.406l-1.283,1.687l-0.733,4.406l-0.998,0.63l-0.265,1.506l0.407,1.977l-3.218,2.158l1.1,2.045l2.689,1.078l-0.51,0.966l1.732,5.369l-0.265,3.414l-0.937,1.572l0.387,2.291l-1.548,3.39l0.061,1.863l-1.039,1.863l-0.591,2.222l-0.957,0.651l-1.63,-0.718l-2.057,1.593l-1.446,0.538l-2.241,-0.044l-0.204,1.974l1.182,0.92l-0.448,1.257l-1.324,1.009l0.448,1.1l-0.55,2.826l-1.589,1.817l-2.118,-0.875l-2.343,0.314l-1.609,0.628l-3.3,-0.561l-0.896,2.893l-1.304,0.897l0.082,0.92l-1.997,1.995l2.791,1.906l-0.978,1.659l-2.587,0.852l-0.977,0.941l-1.569,0.583l-0.652,-1.681l0.734,-0.785l-1.039,-1.591l-1.223,-0.023l-2.872,-1.098l-1.731,-0.337l-1.283,0.314l-1.386,0.381l-1.344,-0.896l-0.998,0.336l-1.854,-0.762l-4.237,0.022l-0.896,1.211l-2.403,-0.897l-3.423,0.359l-1.67,-1.861l-0.591,-2.355l0.041,-1.839l-0.692,-1.906l-1.304,-1.885l-0.082,-0.964l0.815,-2.109l0.917,-1.009l-0.143,-1.863l0.571,-1.862l-1.365,-2.11l-1.446,0.651l-3.361,-0.741l-2.119,-1.638l-1.589,-0.382l-2.383,0.808l-0.693,-0.202l-0.998,-1.683l-2.607,0.696l-1.894,-0.471l-1.1,1.458l-3.137,0.045l-1.365,-0.875l0.305,-1.908l-1.181,-0.337l-1.365,1.684l-0.611,-0.269l-0.265,-2.043l0.856,-1.212l-0.041,-1.303l1.65,-3.188l-0.02,-2.919l-0.876,-2.763l-0.082,-2.538l0.673,-1.55l1.385,-0.495l0.163,-2.336l-0.998,-2.764l-1.141,-1.955l3.666,-1.147l1.732,-1.888l-0.021,-1.573l-1.568,-0.045l-2.363,0.584l-1.487,-1.146l-0.265,-1.327l-1.629,-1.663l-1.059,-0.27l1.12,-2.429l-0.958,-1.236l1.324,-3.644l0.775,-1.394l-0.469,-1.8l0.774,-2.182l-1.039,-0.72l0.774,-1.418l-0.896,-1.71l1.08,-0.428l1.425,-1.642l0.449,-3.286l-1.752,-1.351l0.55,-2.206l3.442,0.067l0.897,0.293l0.855,-1.261l2.261,1.058l1.609,0.293l1.793,-0.675l1.752,0.112l1.996,1.576l1.629,-1.103l1.793,-0.495l0.774,-1.554l1.243,-0.945l2.566,-4.144l0.489,-1.734l1.12,-0.901l1.997,-0.27l-0.102,-3.514l1.079,-3.425l1.202,-1.172l1.263,-0l0.469,1.104l2.138,0.09l1.243,2.479l1.406,0.36l0.468,-2.794l3.483,1.375l1.671,-0.721l2.546,-2.389l1.568,1.172l2.119,0.496l2.159,-0.608l1.609,-1.983l0.509,-1.691l1.182,-1.69l1.772,-0.496l2.75,-0.09l0.652,0.766l5.418,-4.283l0.693,-1.42l1.303,-0.789l4.135,0.158l0.835,-0.541l0.917,-2.007l1.854,-0.384l0.916,-1.533l1.813,1.984l2.241,-1.646l1.589,0.226l1.609,-1.173l2.567,1.466l0.855,-0.428l1.528,-3.18l1.446,-0.361l0.489,1.173l2.343,1.353l2.505,-0.699l2.892,0.112l2.608,1.444Z" style="fill-rule:nonzero;stroke:gray;stroke-width:1px;"/>
    </g>
    <g class="county YUN" id="YUN">
        <path d="M160.844,282.413l1.344,0.583l0.387,1.458l-1.405,-0.179l-2.078,1.457l-1.12,3.454l-0.978,-0.583l-1.182,0.941l-2.138,-0.358l-0.958,1.322l0.224,1.615l-2.811,-0l-1.039,-0.83l0.469,-1.098l2.2,-1.705l3.035,-1.928l3.626,-2.781l2.424,-1.368Zm2.546,-2.669l1.568,1.66l-0.468,0.493l-2.241,-0.583l1.141,-1.57Zm75.531,-37.273l1.141,1.955l0.998,2.764l-0.163,2.336l-1.385,0.495l-0.673,1.55l0.082,2.538l0.876,2.763l0.02,2.919l-1.65,3.188l0.041,1.303l-0.856,1.212l0.265,2.043l0.611,0.269l1.365,-1.684l1.181,0.337l-0.305,1.908l1.365,0.875l3.137,-0.045l1.1,-1.458l1.894,0.471l2.607,-0.696l0.998,1.683l-0.875,1.1l1.283,2.873l-0.224,1.167l-1.996,1.234l-3.341,-1.145l-2.485,0.875l-0.754,-1.166l-2.791,0.92l-0.733,-3.232l-2.852,0.449l-0.855,0.988l-1.283,0.246l-2.934,-0.448l-1.69,0.291l-2.811,-1.413l-2.75,-0.292l-2.689,-2.491l-2.526,-3.659l-1.915,0.673l-0.998,-0.314l-3.239,0.943l-1.568,-0.584l-1.996,1.841l-1.1,-0.135l-2.709,-1.167l-2.241,0.898l-0.957,1.683l-1.854,0.314l-1.365,2.11l-3.218,0.337l-0.082,1.929l-1.772,1.033l-1.181,-0.404l-0.204,1.615l-1.793,-0.022l-1.161,0.516l0.224,1.525l-2.037,1.167l-0.611,1.952l-1.181,-0.427l-1.039,-1.929l-1.956,0.696l0.693,3.858l-1.1,1.3l-2.241,0.516l-2.525,-1.143l-3.361,0.291l-1.997,-1.121l-1.181,0.202l-1.732,-0.741l0.632,-1.682l-1.507,-2.737l0.529,-3.387l-0.224,-3.075l-0.631,-4.286l-1.895,-0.225l-1.263,-1.683l1.324,-1.572l1.569,-3.637l0.55,-2.605l0.855,-1.19l0.224,-2.246l1.243,-1.954l1.385,-3.415l0.469,-2.606l-1.691,-3.888l3.402,-3.956l1.446,-1.191l2.22,-2.901l-0.346,-1.708l1.283,-0.36l0.835,-2.361l1.345,1.799l2.057,2.113l1.446,0.967l7.415,2.136l7.252,-0.45l1.425,-0.809l5.582,0.315l3.198,-0.562l2.628,1.955l4.359,1.641l3.89,0.989l2.526,0.135l3.157,-0.292l5.704,1.528l3.117,-0.044l3.544,0.809Z" style="fill-rule:nonzero;stroke:gray;stroke-width:1px;"/>
    </g>
    <g class="county CYICity" id="CYICity">
        <path d="M212.012,283.31l0.795,0.359l1.304,2.288l1.507,-0.92l1.365,0.224l0.651,2.041l1.712,0.202l1.262,2.399l-1.996,3.363l-0.774,0.067l-1.772,-1.479l-1.12,0.067l-1.345,1.121l-0.855,1.434l-1.854,0.807l-1.324,-1.972l-0.122,-1.3l-1.956,0.112l-0.55,-0.695l-2.383,0.358l0.632,-2.354l-1.243,-2.04l-0.061,-1.099l1.385,-0.023l0.632,-0.762l1.181,0.695l2.831,-2.175l2.098,-0.718Z" style="fill-rule:nonzero;stroke:gray;stroke-width:1px;"/>
    </g>
    <g class="county CYICounty" id="CYICounty">
        <path d="M251.57,269.197l0.693,0.202l2.383,-0.808l1.589,0.382l2.119,1.638l3.361,0.741l1.446,-0.651l1.365,2.11l-0.571,1.862l0.143,1.863l-0.917,1.009l-0.815,2.109l0.082,0.964l1.304,1.885l0.692,1.906l-0.041,1.839l0.591,2.355l1.67,1.861l3.423,-0.359l2.403,0.897l0.896,-1.211l4.237,-0.022l1.854,0.762l0.998,-0.336l1.344,0.896l1.386,-0.381l-4.074,1.951l-2.18,-0.269l-2.22,1.165l-1.345,2.376l-2.403,1.3l-2.893,1.099l-2.892,6.767l-3.32,1.187l-2.282,2.196l-0.733,1.613l-3.504,-0.314l0.061,1.321l-1.487,2.061l-2.179,1.232l-0.224,1.254l-2.587,-0.471l-1.08,1.03l-0.122,1.904l-1.385,0.739l-3.096,-0.829l-1.956,-0.784l-0.754,0.605l-1.161,-0.739l-0.081,3.045l-0.632,1.097l0.489,1.813l0.897,1.164l0.692,3.76l-3.524,-0.761l-2.587,1.03l-1.792,-1.074l-1.447,0.872l-1.12,1.343l-1.833,-0.873l-1.467,0.515l-1.853,-1.566l-2.058,-0.47l-1.079,-1.254l1.527,-1.32l-0.102,-1.545l-0.998,-2.417l-0.04,-2.127l0.57,-0.65l-0.469,-2.978l2.424,-2.441l-0.835,-1.209l-2.587,-1.21l-1.079,0.112l-0.571,-1.209l1.223,-1.345l-1.06,-1.388l-1.874,-0.538l-0.835,-1.188l1.935,-1.142l-1.161,-1.188l-1.609,1.233l-0.754,-1.502l-4.97,-2.442l-2.098,1.075l-1.955,-0.919l-3.952,1.367l-4.848,0.471l-1.833,2.218l-1.61,0.336l-1.487,-0.313l-0.02,1.546l-2.505,-0l-1.019,1.299l0.061,2.532l-1.365,0.313l-1.487,-0.605l-0.692,1.165l0.896,0.583l-1.67,1.523l-2.383,0.537l-2.404,4.725l-2.322,0.627l-1.752,-1.276l-1.813,1.298l-1.12,-1.992l-3.096,-1.456l-0,-0.806l-4.258,-3.091l1.385,-3.562l0.51,-3.226l3.646,-0.157l0.55,-1.344l-0.245,-1.748l-1.466,-0l0.02,-2.555l-0.57,-0.874l0.611,-2.017l-0.021,-1.883l-0.712,-0.83l0.081,-1.883l1.487,-1.816l0.285,-1.682l-3.402,1.054l-1.242,-0.09l-0.733,-1.031l-0.062,-2.983l1.162,-0.785l2.118,0.426l0.468,-0.516l1.732,0.741l1.181,-0.202l1.997,1.121l3.361,-0.291l2.525,1.143l2.241,-0.516l1.1,-1.3l-0.693,-3.858l1.956,-0.696l1.039,1.929l1.181,0.427l0.611,-1.952l2.037,-1.167l-0.224,-1.525l1.161,-0.516l1.793,0.022l0.204,-1.615l1.181,0.404l1.772,-1.033l0.082,-1.929l3.218,-0.337l1.365,-2.11l1.854,-0.314l0.957,-1.683l2.241,-0.898l2.709,1.167l1.1,0.135l1.996,-1.841l1.568,0.584l3.239,-0.943l0.998,0.314l1.915,-0.673l2.526,3.659l2.689,2.491l2.75,0.292l2.811,1.413l1.69,-0.291l2.934,0.448l1.283,-0.246l0.855,-0.988l2.852,-0.449l0.733,3.232l2.791,-0.92l0.754,1.166l2.485,-0.875l3.341,1.145l1.996,-1.234l0.224,-1.167l-1.283,-2.873l0.875,-1.1Zm-39.558,14.113l-2.098,0.718l-2.831,2.175l-1.181,-0.695l-0.632,0.762l-1.385,0.023l0.061,1.099l1.243,2.04l-0.632,2.354l2.383,-0.358l0.55,0.695l1.956,-0.112l0.122,1.3l1.324,1.972l1.854,-0.807l0.855,-1.434l1.345,-1.121l1.12,-0.067l1.772,1.479l0.774,-0.067l1.996,-3.363l-1.262,-2.399l-1.712,-0.202l-0.651,-2.041l-1.365,-0.224l-1.507,0.92l-1.304,-2.288l-0.795,-0.359Z" style="fill-rule:nonzero;stroke:gray;stroke-width:1px;"/>
    </g>
    <g class="county TNN" id="TNN">
        <path d="M240.754,327.983l0.387,1.03l-0.672,1.409l-1.141,0.784l-0.937,1.991l0.509,1.029l-0.55,1.253l-2.729,1.812l-0.672,1.745l-1.508,1.14l-1.772,3.176l-0.02,1.342l-1.976,2.996l0.102,0.492l-2.832,3.442l-3.198,1.833l-3.89,4.269l-2.954,1.966l-0.366,1.832l-2.669,-0.067l-0.774,1.944l-0.306,1.899l-1.12,-0.134l-1.691,3.573l-0.651,2.345l-1.65,3.663l-0.958,0.379l-1.487,-1.273l-2.994,0.603l-0.733,1.563l-1.793,0.983l-0.815,1.361l-2.953,0.491l-1.059,-1.696l-2.995,-0l-3.565,-0.603l-0.509,1.384l-1.915,-0.982l-0.59,1.183l-1.874,-1.451l-1.365,-0.29l-0.204,-1.518l-1.609,0.893l-3.931,-1.764l-2.404,1.429l0.061,-3.216l-0.448,-2.523l-1.874,-3.82l-3.341,-3.73l-3.422,-2.95l-3.218,-2.1l-3.524,-1.743l-0.55,0.156l-2.648,-3.777l-1.446,0.223l-0.102,-1.296l1.018,-4.158l1.222,-2.527l1.141,-1.029l0.55,-1.901l0.632,-3.824l2.362,-5.593l0.612,-3.312l-0.184,-2.328l1.222,-1.835l0.571,-2.395l0.407,-5.127l2.017,-1.702l0.387,-1.814l-0.347,-1.456l0.978,-1.254l4.258,3.091l-0,0.806l3.096,1.456l1.12,1.992l1.813,-1.298l1.752,1.276l2.322,-0.627l2.404,-4.725l2.383,-0.537l1.67,-1.523l-0.896,-0.583l0.692,-1.165l1.487,0.605l1.365,-0.313l-0.061,-2.532l1.019,-1.299l2.505,-0l0.02,-1.546l1.487,0.313l1.61,-0.336l1.833,-2.218l4.848,-0.471l3.952,-1.367l1.955,0.919l2.098,-1.075l4.97,2.442l0.754,1.502l1.609,-1.233l1.161,1.188l-1.935,1.142l0.835,1.188l1.874,0.538l1.06,1.388l-1.223,1.345l0.571,1.209l1.079,-0.112l2.587,1.21l0.835,1.209l-2.424,2.441l0.469,2.978l-0.57,0.65l0.04,2.127l0.998,2.417l0.102,1.545l-1.527,1.32l1.079,1.254l2.058,0.47l1.853,1.566l1.467,-0.515l1.833,0.873l1.12,-1.343l1.447,-0.872l1.792,1.074l2.587,-1.03l3.524,0.761Z" style="fill-rule:nonzero;stroke:gray;stroke-width:1px;"/>
    </g>
    <g class="county KAO" id="KAO">
        <path d="M291.271,295.911l1.039,1.614l0.917,0.314l-0.469,3.003l-3.463,1.703l-0.142,1.434l-1.691,1.792l-0.122,1.792l1.813,0.336l1.385,1.613l1.405,-0.672l0.652,1.613l3.28,2.128l-0.245,2.53l-2.037,0.829l-0.489,1.007l-2.464,0.65l-3.443,1.903l-2.2,-0.045l-1.691,2.306l-2.831,3.111l-1.507,0.045l-1.63,1.074l-0.509,1.388l-0.02,2.775l-0.734,2.036l0.835,1.522l-1.955,1.588l-0.469,2.371l-2.566,1.476l1.242,0.962l0.326,1.253l-0.407,2.482l0.611,1.453l-0.02,1.521l-0.917,2.593l-1.854,3.554l1.671,2.392l-0.265,1.452l-2.241,0.358l-0.387,3.665l-2.566,2.569l-0.143,1.095l-1.263,0.58l-0.285,1.542l-1.283,1.362l0.529,1.296l-0.387,2.635l1.589,3.461l-0.672,1.071l1.874,3.617l2.485,0.446l0.713,0.871l-0.448,1.696l1.079,0.513l-0.672,2.255l-1.589,-2.188l-0.835,0.849l-1.976,-2.165l-1.405,0.089l-1.284,1.205l-1.772,1.004l-1.079,-0.133l-0.061,1.472l-1.976,1.072l-2.058,-2.143l-0.264,-1.138l-1.793,-1.339l-0.917,-1.183l-2.464,-1.116l-2.872,0.022l-1.956,2.389l-1.589,0.29l-0.326,0.87l-2.22,-0.357l-0.387,-3.036l-1.344,0.38l-0.489,-1.205l-3.402,1.45l-2.057,0.358l-4.421,3.861l-1.059,1.406l-1.731,1.45l-2.485,-0.067l-1.813,-0.535l-1.874,0.647l-0.917,-0.491l-3.809,-0.96l-1.039,1.138l-0.652,4.596l-0.916,2.231l-0.53,2.498l0.285,7.649l-1.161,4.57l-0.672,0.58l-0.835,2.942l-0.123,5.236l-0.285,1.939l0.53,1.559l1.161,1.292l0.163,1.916l-0.611,3.608l-0.856,2.227l-0.713,0.423l-1.201,3.963l0.407,3.072l-0.183,4.452l-3.158,-0.779l-3.992,-2.627l-3.096,-2.76l-2.404,-1.803l-0.061,-1.113l-2.913,2.115l-1.222,-2.694l0.53,-0.423l1.283,1.692l0.713,-0.534l-1.996,-2.65l-1.202,-0.312l0.55,-1.581l-5.459,-6.659l0.244,-1.337l-1.304,-1.069l0.998,-0.958l-1.874,-4.034l0.163,-1.693l1.874,-2.006l-0.325,-3.477l-0.836,-2.899l-6.131,-13.671l-2.017,0.357l-1.018,-1.517l2.159,-0.737l-0.978,-3.547l-1.303,-2.589l0.448,-0.625l-2.526,-7.121l2.404,-1.429l3.931,1.764l1.609,-0.893l0.204,1.518l1.365,0.29l1.874,1.451l0.59,-1.183l1.915,0.982l0.509,-1.384l3.565,0.603l2.995,-0l1.059,1.696l2.953,-0.491l0.815,-1.361l1.793,-0.983l0.733,-1.563l2.994,-0.603l1.487,1.273l0.958,-0.379l1.65,-3.663l0.651,-2.345l1.691,-3.573l1.12,0.134l0.306,-1.899l0.774,-1.944l2.669,0.067l0.366,-1.832l2.954,-1.966l3.89,-4.269l3.198,-1.833l2.832,-3.442l-0.102,-0.492l1.976,-2.996l0.02,-1.342l1.772,-3.176l1.508,-1.14l0.672,-1.745l2.729,-1.812l0.55,-1.253l-0.509,-1.029l0.937,-1.991l1.141,-0.784l0.672,-1.409l-0.387,-1.03l-0.692,-3.76l-0.897,-1.164l-0.489,-1.813l0.632,-1.097l0.081,-3.045l1.161,0.739l0.754,-0.605l1.956,0.784l3.096,0.829l1.385,-0.739l0.122,-1.904l1.08,-1.03l2.587,0.471l0.224,-1.254l2.179,-1.232l1.487,-2.061l-0.061,-1.321l3.504,0.314l0.733,-1.613l2.282,-2.196l3.32,-1.187l2.892,-6.767l2.893,-1.099l2.403,-1.3l1.345,-2.376l2.22,-1.165l2.18,0.269l4.074,-1.951l1.283,-0.314l1.731,0.337l2.872,1.098l1.223,0.023l1.039,1.591l-0.734,0.785l0.652,1.681Z" style="fill-rule:nonzero;stroke:gray;stroke-width:1px;"/>
    </g>
    <g class="county PIF" id="PIF">
        <path d="M202.52,459.508l1.304,1.001l-0.265,1.156l-3.789,2.935l-0.876,-1.068l1.345,-1.6l-0.326,-0.89l0.896,-0.934l1.711,-0.6Zm67.709,-73.667l0.082,2.766l0.488,1.205l3.158,0.804l1.69,1.784l-0.224,1.852l0.286,1.784l-1.426,1.361l0.285,1.673l-0.122,2.765l-1.569,3.099l-4.868,-0l-1.182,1.583l-0.468,1.449l-2.363,0.223l-1.487,1.092l-3.137,-0.669l0.672,2.051l-0.753,1.092l0.02,1.36l-2.607,4.055l-0.897,0.936l-1.161,2.718l0.265,1.582l-1.263,2.005l0.306,2.606l-0.897,0.356l-0.285,2.606l1.467,2.649l0.529,3.518l1.243,1.447l0.163,1.514l-0.896,1.402l-0.815,3.539l0.896,-0.023l2.567,1.447l-0.204,0.712l2.057,4.027l-1.303,1.223l-2.159,0.089l-0.958,0.601l-0.794,1.957l-0.672,3.114l0.672,1.624l1.507,0.244l0.672,1.757l2.384,0.267l1.038,1.512l0.612,2.601l-1.365,1.378l-1.243,0.111l-0.061,1.579l1.507,0.6l1.345,2.645l-0.265,1.289l0.489,1.622l2.18,-0.911l1.466,1l1.895,1.955l2.688,0.422l1.121,1.666l4.135,-2.51l0.366,2.51l-0.672,2.022l0.306,1.955l-0.795,1.222l0.489,3.42l-0.224,3.375l0.55,1.443l-1.202,1.111l0.041,1.931l0.591,1.532l1.344,0.754l-1.12,2.531l-0.041,5.858l1.039,2.308l-1.67,1.287l-0.306,1.419l-1.222,0.866l-0.346,1.774l-1.976,1.22l-2.18,0.687l-0.509,5.456l0.917,2.439l1.914,2.438l-0.102,1.197l0.734,1.042l-1.202,1.064l-1.039,-0.111l-0.692,-2.615l-1.243,-0.333l-2.098,-2.771l-1.283,0.133l-2.302,-1.308l-1.895,-0.2l-2.566,-2.35l-1.609,0.576l-0.652,0.865l-0.224,2.306l-1.019,2.173l-1.507,0.221l-2.526,-2.372l0.122,-4.501l0.489,-1.086l-0.204,-1.42l-1.12,-1.951l-1.629,-1.354l-1.202,-3.216l0.265,-1.331l1.303,-1.553l0.143,-1.797l0.978,-0.156l0.162,-2.219l-0.896,-1.82l2.465,-1.575l-0.244,-1.998l-0.856,-2.442l-1.609,-2.664l0.265,-1.466l-1.161,-4.707l-1.019,-2.577l0.143,-1.777l-1.793,-3.466l-1.955,-1.466l-1.223,-1.933l0.408,-1.889l-1.324,-3.445l0.02,-1.578l-1.711,-2.645l-2.811,-2.557l-1.609,-2.98l-1.854,-2.068l-5.031,-3.469l-5.724,-2.981l-6.987,-4.116l-3.137,-3.026l-0.407,-1.358l-1.222,-0.044l0.183,-4.452l-0.407,-3.072l1.201,-3.963l0.713,-0.423l0.856,-2.227l0.611,-3.608l-0.163,-1.916l-1.161,-1.292l-0.53,-1.559l0.285,-1.939l0.123,-5.236l0.835,-2.942l0.672,-0.58l1.161,-4.57l-0.285,-7.649l0.53,-2.498l0.916,-2.231l0.652,-4.596l1.039,-1.138l3.809,0.96l0.917,0.491l1.874,-0.647l1.813,0.535l2.485,0.067l1.731,-1.45l1.059,-1.406l4.421,-3.861l2.057,-0.358l3.402,-1.45l0.489,1.205l1.344,-0.38l0.387,3.036l2.22,0.357l0.326,-0.87l1.589,-0.29l1.956,-2.389l2.872,-0.022l2.464,1.116l0.917,1.183l1.793,1.339l0.264,1.138l2.058,2.143l1.976,-1.072l0.061,-1.472l1.079,0.133l1.772,-1.004l1.284,-1.205l1.405,-0.089l1.976,2.165l0.835,-0.849l1.589,2.188Z" style="fill-rule:nonzero;stroke:gray;stroke-width:1px;"/>
    </g>
    <g class="county HUN" id="HUN">
        <path d="M397.214,161.553l-0.631,1.941l-2.221,2.211l-0.753,1.264l-0.571,2.865l-2.2,2.391l-1.589,0.428l-1.507,2.639l-4.746,3.044l-1.243,1.781l-0.672,3.405l0.795,2.502l-0.062,3.2l-1.201,2.005l-3.647,2.772l-1.385,2.095l-0.407,1.689l0.061,2.681l0.57,1.937l1.365,2.769l1.833,1.667l0.612,1.598l-2.75,6.033l-0.856,-1.283l-1.833,2.386l-0.285,1.44l0.692,2.97l-0.937,3.465l0.061,1.732l-1.039,6.455l-1.731,4.249l-0.346,1.439l-0.958,1.372l-0.57,1.978l-0.224,2.359l0.224,3.933l-0.754,2.135l-1.303,2.493l-0.754,0.539l-0.407,1.685l0.57,2.044l-1.019,3.526l-0.325,2.919l-1.1,1.594l-0.652,2.918l-0.184,4.624l-1.1,4.42l-1.507,2.379l-1.079,5.181l0.488,3.432l0.958,1.188l-1.956,4.708l-0.529,3.251l-2.261,0.56l-0.917,-1.434l-1.568,0.156l-2.241,-0.627l-0.693,1.457l-1.079,0.179l-1.935,2.062l-0.958,2.533l-1.772,2.621l0.856,3.025l2.342,0.851l-0.102,0.762l-1.67,1.321l-0.978,1.523l-0.754,2.218l-1.059,0.156l-0.326,1.523l-1.609,2.262l0.224,3.985l-2.566,2.552l0.285,0.94l-1.263,2.328l0.468,1.119l-1.303,1.029l0.04,1.209l-1.303,3.154l-0.367,1.589l-1.548,-0.067l-0.876,2.125l0.957,2.349l-0.57,1.699l0.224,3.109l-0.835,1.028l-1.752,-0.111l-2.648,0.715l-0.815,0.827l-1.996,-0.447l0.387,-1.565l-1.303,-1.767l-1.162,-0.827l-1.527,0.402l-1.039,-1.587l-2.648,-0.917l-0.245,-2.237l-1.548,-2.304l-0.142,-2.014l-1.222,-2.327l-1.936,-0.984l-2.057,0.649l-0.855,1.029l-2.078,-0.358l-1.467,-3.312l-2.852,-0.022l-2.301,-1.589l-1.223,0.134l-1.894,-2.395l-1.08,-2.596l-0.04,-2.06l-0.815,-1.657l-2.424,-1.567l-1.467,0.537l0.489,-1.007l2.037,-0.829l0.245,-2.53l-3.28,-2.128l-0.652,-1.613l-1.405,0.672l-1.385,-1.613l-1.813,-0.336l0.122,-1.792l1.691,-1.792l0.142,-1.434l3.463,-1.703l0.469,-3.003l-0.917,-0.314l-1.039,-1.614l1.569,-0.583l0.977,-0.941l2.587,-0.852l0.978,-1.659l-2.791,-1.906l1.997,-1.995l-0.082,-0.92l1.304,-0.897l0.896,-2.893l3.3,0.561l1.609,-0.628l2.343,-0.314l2.118,0.875l1.589,-1.817l0.55,-2.826l-0.448,-1.1l1.324,-1.009l0.448,-1.257l-1.182,-0.92l0.204,-1.974l2.241,0.044l1.446,-0.538l2.057,-1.593l1.63,0.718l0.957,-0.651l0.591,-2.222l1.039,-1.863l-0.061,-1.863l1.548,-3.39l-0.387,-2.291l0.937,-1.572l0.265,-3.414l-1.732,-5.369l0.51,-0.966l-2.689,-1.078l-1.1,-2.045l3.218,-2.158l-0.407,-1.977l0.265,-1.506l0.998,-0.63l0.733,-4.406l1.283,-1.687l0.571,-2.406l2.159,-2.429l-0.428,-1.147l0.122,-2.452l1.202,-0.045l0.224,-2.384l-0.631,-2.295l0.448,-3.398l0.367,-0.81l-0.652,-1.463l-1.161,-0l-0.673,-2.589l1.304,-2.139l0.998,-2.791l1.284,-2.32l-0.347,-2.229l5.561,-4.685l-0.55,-1.6l0.856,-0.991l0.448,-1.915l-1.752,-0.316l-2.811,-2.433l-2.017,-0.541l0.897,-3.268l0.04,-3.133l2.465,-0.361l1.446,-0.834l1.345,-1.623l3.279,-0.541l-0.183,-1.985l-0.672,-1.668l1.242,-1.602l0.082,-1.511l1.141,-0l0.896,-1.285l2.505,-0.406l0.082,-1.421l-0.734,-2.347l3.117,-2.527l0.367,-1.873l2.485,-0l1.65,-2.189l-0.347,-1.083l0.428,-2.709l0.835,-1.738l1.467,-0.925l1.813,1.399l2.852,1.084l1.772,1.422l3.768,-0.497l4.319,1.716l0.57,1.309l1.324,0.722l2.505,0.293l2.384,-0.338l-0.102,-1.648l1.772,-1.783l1.589,0.316l-0.082,-1.67l-0.794,-1.174l-0,-1.445l1.283,-0.609l1.284,1.648l1.466,-0l3.545,3.431l2.974,0.474l2.261,1.128l4.359,0.632l2.016,1.309l2.078,-0.158Z" style="fill-rule:nonzero;stroke:gray;stroke-width:1px;"/>
    </g>
    <g class="county TTT" id="TTT">
        <path d="M374.563,521.791l-1.019,-1.441l1.447,-0.355l-0.428,1.796Zm-14.952,-21.362l1.202,0.666l7.415,-0.6l0.631,2.952l-0.998,1.598l0.591,1.997l1.487,1.264l2.485,1.087l0.896,1.021l-1.364,2.506l-3.26,-0.332l-1.038,-1.997l-1.874,-1.264l-1.426,0.199l-3.891,-3.793l-0.285,-3.107l-1.324,-1.554l0.753,-0.643Zm-1.833,-89.498l2.567,0.066l-0.163,3.499l-1.283,1.204l0.692,1.159l-1.304,0.869l-1.303,-1.739l-1.732,-0.378l0.245,-1.85l-1.385,-1.783l0.061,-0.891l1.976,0.356l1.629,-0.512Zm0.632,-114.93l-1.671,3.653l-0.285,2.062l-1.018,1.613l-0.367,2.308l-0,2.89l-0.631,1.052l0.02,2.061l-0.815,2.956l-2.078,0.56l-1.975,3.157l-0.774,3.358l-0.917,1.276l-0,1.142l-0.835,2.305l0.774,1.321l-1.609,1.991l-1.487,0.784l-0.245,1.834l0.998,2.618l0.55,2.483l-0.896,2.483l-0.183,1.655l1.588,1.677l-0.59,1.23l-1.65,0.38l-1.711,2.728l-2.343,-0.112l-1.548,2.504l0.245,0.894l-1.039,1.073l-1.976,6.817l-1.854,3.038l0.265,1.207l-1.833,3.194l-1.569,2.01l-1.67,1.006l-0.794,1.161l-0.408,2.077l-1.426,3.103l-0.692,0.447l-2.322,4.063l-0.999,0.245l-0.529,1.786l-3.789,0.737l-2.444,2.031l-0.55,3.079l1.385,2.12l0.489,2.967l-1.834,0.758l-0.896,1.183l-0.611,3.457l-2.831,1.94l-1.63,1.94l-2.363,2.274l-3.768,2.163l-2.77,1.048l-2.384,2.452l-1.242,0.891l-2.139,0.825l-1.507,1.471l-0.978,1.783l-1.345,4.478l-0.488,4.634l-3.28,2.94l-1.181,2.294l-1.223,4.141l-1.283,3.451l-2.037,7.767l-1.609,4.45l-1.1,2.158l-1.446,3.626l-0.856,3.892l-0.855,1.001l-1.08,2.69l-0.367,2.846l-0.061,5.779l0.632,4.689l-4.135,2.51l-1.121,-1.666l-2.688,-0.422l-1.895,-1.955l-1.466,-1l-2.18,0.911l-0.489,-1.622l0.265,-1.289l-1.345,-2.645l-1.507,-0.6l0.061,-1.579l1.243,-0.111l1.365,-1.378l-0.612,-2.601l-1.038,-1.512l-2.384,-0.267l-0.672,-1.757l-1.507,-0.244l-0.672,-1.624l0.672,-3.114l0.794,-1.957l0.958,-0.601l2.159,-0.089l1.303,-1.223l-2.057,-4.027l0.204,-0.712l-2.567,-1.447l-0.896,0.023l0.815,-3.539l0.896,-1.402l-0.163,-1.514l-1.243,-1.447l-0.529,-3.518l-1.467,-2.649l0.285,-2.606l0.897,-0.356l-0.306,-2.606l1.263,-2.005l-0.265,-1.582l1.161,-2.718l0.897,-0.936l2.607,-4.055l-0.02,-1.36l0.753,-1.092l-0.672,-2.051l3.137,0.669l1.487,-1.092l2.363,-0.223l0.468,-1.449l1.182,-1.583l4.868,-0l1.569,-3.099l0.122,-2.765l-0.285,-1.673l1.426,-1.361l-0.286,-1.784l0.224,-1.852l-1.69,-1.784l-3.158,-0.804l-0.488,-1.205l-0.082,-2.766l0.672,-2.255l-1.079,-0.513l0.448,-1.696l-0.713,-0.871l-2.485,-0.446l-1.874,-3.617l0.672,-1.071l-1.589,-3.461l0.387,-2.635l-0.529,-1.296l1.283,-1.362l0.285,-1.542l1.263,-0.58l0.143,-1.095l2.566,-2.569l0.387,-3.665l2.241,-0.358l0.265,-1.452l-1.671,-2.392l1.854,-3.554l0.917,-2.593l0.02,-1.521l-0.611,-1.453l0.407,-2.482l-0.326,-1.253l-1.242,-0.962l2.566,-1.476l0.469,-2.371l1.955,-1.588l-0.835,-1.522l0.734,-2.036l0.02,-2.775l0.509,-1.388l1.63,-1.074l1.507,-0.045l2.831,-3.111l1.691,-2.306l2.2,0.045l3.443,-1.903l2.464,-0.65l1.467,-0.537l2.424,1.567l0.815,1.657l0.04,2.06l1.08,2.596l1.894,2.395l1.223,-0.134l2.301,1.589l2.852,0.022l1.467,3.312l2.078,0.358l0.855,-1.029l2.057,-0.649l1.936,0.984l1.222,2.327l0.142,2.014l1.548,2.304l0.245,2.237l2.648,0.917l1.039,1.587l1.527,-0.402l1.162,0.827l1.303,1.767l-0.387,1.565l1.996,0.447l0.815,-0.827l2.648,-0.715l1.752,0.111l0.835,-1.028l-0.224,-3.109l0.57,-1.699l-0.957,-2.349l0.876,-2.125l1.548,0.067l0.367,-1.589l1.303,-3.154l-0.04,-1.209l1.303,-1.029l-0.468,-1.119l1.263,-2.328l-0.285,-0.94l2.566,-2.552l-0.224,-3.985l1.609,-2.262l0.326,-1.523l1.059,-0.156l0.754,-2.218l0.978,-1.523l1.67,-1.321l0.102,-0.762l-2.342,-0.851l-0.856,-3.025l1.772,-2.621l0.958,-2.533l1.935,-2.062l1.079,-0.179l0.693,-1.457l2.241,0.627l1.568,-0.156l0.917,1.434l2.261,-0.56Z" style="fill-rule:nonzero;stroke:gray;stroke-width:1px;"/>
    </g>
    <g class="county PEN" id="PEN">
        <path d="M71.359,328.453l0.51,1.052l-0.143,2.126l-0.998,-0.179l-1.67,1.521l-0.448,-1.767l-1.141,-1.164l0.733,-1.029l3.157,-0.56Zm33.101,-6.491l0.123,1.164l-1.61,1.075l-0,-1.836l1.487,-0.403Zm-25.645,-20.246l1.018,1.21l0.998,-0.157l-0.101,5.534l-2.343,0.134l0.55,-1.859l-0.326,-2.554l0.204,-2.308Zm-24.281,-2.196l1.1,1.658l-1.813,0.157l0.713,-1.815Zm36.93,-40.335l1.589,0.426l2.343,3.211l-1.202,0.472l-0.632,2.02l1.956,5.23l1.65,0.247l1.283,1.436l2.2,-1.952l2.506,1.907l0.509,-1.189l1.242,2.109l0.021,1.863l1.853,2.625l-2.199,0.673l-0.306,-1.279l-4.094,-0.134l-1.121,1.144l-3.585,2.445l-1.202,1.817l0.51,2.422l-2.587,-0.538l-1.976,0.83l-0.183,-1.593l-1.325,-1.839l1.019,-0.336l3.809,0.067l0.55,-1.323l-0.489,-1.459l-1.507,-0.224l-2.2,0.763l0.917,-2.603l-1.834,-1.548l-0.326,-1.862l2.587,0.381l0.408,1.459l1.629,0.718l0.163,-2.11l1.141,-0.359l-0.509,-2.356l0.305,-1.302l-1.059,-0.965l0.428,-0.83l-1.385,-1.302l0.427,-1.841l-1.588,-1.684l-0.632,-1.504l-1.446,0.382l-0.652,1.212l-1.222,-0.763l-1.63,2.133l0.082,0.785l-0.387,0.584l-1.385,0.584l-1.202,-0.158l-0.184,3.322l0.387,1.168l-1.548,3.388l0.428,2.356l-2.403,-0.606l-1.141,0.831l-1.426,-0.225l0.55,-1.728l1.405,0.763l1.324,-1.211l0.225,-1.145l-1.569,-2.289l1.263,-0.269l0.876,-1.594l-1.304,-1.055l0.387,-1.661l1.324,-2.536l2.73,1.302l1.283,-0.202l1.161,-1.662l0.754,-0.965l0.163,-1.662l2.057,-0.381l1.996,-0.831Zm3.932,-12.13l1.589,1.91l-1.61,0.269l-1.283,1.753l-0.917,-0.966l2.221,-2.966Z" style="fill-rule:nonzero;stroke:gray;stroke-width:1px;"/>
    </g>
    <g class="county KNH" id="KNH">
        <path d="M6.849,139.921l1.568,0.565l1.283,1.039l-0.57,3.163l-1.813,0.271l-0.815,1.423l-1.955,0.226l-0.896,1.197l-1.589,-1.513l0.326,-2.033l0.977,-1.31l0.937,-2.35l2.547,-0.678Zm22.691,-11.616l2.506,0.724l0.896,1.989l2.078,0.701l-0.143,0.791l0.856,2.056l1.853,1.672l-0.794,0.837l0.407,2.123l1.406,1.198l-0.489,1.807l-1.222,0.045l0.346,1.491l-1.446,2.101l-2.831,1.49l-1.162,-2.416l-2.383,-0.723l-1.1,-0.994l-2.342,-0.022l-1.813,0.496l-2.648,1.378l-1.752,2.191l-0.978,2.687l-1.487,0.791l-3.646,-1.513l-1.059,-1.378l-1.65,-1.242l1.792,-0.903l1.569,-2.666l-0,-1.536l-0.957,-2.462l-1.263,-1.921l0.896,-2.327l2.057,-0.882l1.487,0.407l1.854,2.147l2.668,1.13l1.772,-0l2.221,-2.034l0.916,-1.311l-0.224,-2.237l1.121,-0.543l0.672,-1.22l2.016,-1.922Z" style="fill-rule:nonzero;stroke:gray;stroke-width:1px;"/>
    </g>
    <g class="county LIE" id="LIE">
        <path d="M147.4,65.674l0.04,2.495l-3.34,2.675l-2.811,0.681l2.403,-4.762l3.708,-1.089Zm-5.622,-1.769l-2.078,3.629l-2.322,-0.681l-0.53,-2.812l4.93,-0.136Zm-3.85,-29.76l2.24,1.135l-0.122,3.135l4.807,0.727l0.693,-1.863l4.196,-0.954l0.815,2.999l-2.037,2.362l-1.833,-0.409l-1.793,2.679l-2.118,-0.726l-5.541,1.135l-1.059,-2.407l1.915,-2.498l-0.774,-1.454l0.611,-3.861Zm11.081,-9.704l2.852,3.546l-2.852,2.636l-5.744,0.863l-1.263,-1.727l3.626,-1.545l3.381,-3.773Zm-0.937,-6.774l-1.059,4.774l-1.956,-1l3.015,-3.774Zm68.401,-15.605l1.1,1.775l-0.57,1.865l3.015,0.046l3.544,1.684l-4.563,2.547l-0.896,-3.594l-1.222,-0.546l-1.833,-1.866l1.425,-1.911Z" style="fill-rule:nonzero;stroke:gray;stroke-width:1px;"/>
    </g>
</svg>
